<svg width="35" height="35" viewBox="0 0 35 35" fill="none" xmlns="http://www.w3.org/2000/svg">
<g clip-path="url(#clip0_2360_3068)">
<path d="M8.75 2.5V13.75C8.75 18.5825 12.6675 22.5 17.5 22.5C22.3325 22.5 26.25 18.5825 26.25 13.75V2.5H8.75Z" fill="#FDDC5C"/>
<path fill-rule="evenodd" clip-rule="evenodd" d="M2.5 0.9375C1.63705 0.9375 0.9375 1.63705 0.9375 2.5V10C0.9375 14.0629 4.03895 17.4015 8.0035 17.7773C9.29618 20.8216 12.01 23.1167 15.3125 23.83V30.3125H11.25C10.0419 30.3125 9.0625 31.292 9.0625 32.5C9.0625 33.708 10.0419 34.6875 11.25 34.6875H23.75C24.9581 34.6875 25.9375 33.708 25.9375 32.5C25.9375 31.292 24.9581 30.3125 23.75 30.3125H19.6875V23.83C22.99 23.1167 25.7038 20.8216 26.9965 17.7773C30.961 17.4015 34.0625 14.0629 34.0625 10V2.5C34.0625 1.63705 33.363 0.9375 32.5 0.9375H2.5ZM10.3125 4.0625V13.75C10.3125 17.7196 13.5304 20.9375 17.5 20.9375C21.4696 20.9375 24.6875 17.7196 24.6875 13.75V4.0625H10.3125ZM7.1875 4.0625H4.0625V10C4.0625 12.041 5.36687 13.7773 7.1875 14.4208V4.0625ZM27.8125 4.0625V14.4208C29.633 13.7773 30.9375 12.041 30.9375 10V4.0625H27.8125Z" fill="#0C098C"/>
</g>
<defs>
<clipPath id="clip0_2360_3068">
<rect width="35" height="35" fill="white"/>
</clipPath>
</defs>
</svg>
