<svg width="1644" height="695" viewBox="0 0 1644 695" fill="none" xmlns="http://www.w3.org/2000/svg">
<path d="M1541.64 134.054C1551.09 134.054 1558.75 114.8 1558.75 91.0492C1558.75 67.2982 1551.09 48.0442 1541.64 48.0442C1532.19 48.0442 1524.52 67.2982 1524.52 91.0492C1524.52 114.8 1532.19 134.054 1541.64 134.054Z" fill="#92E3A9" stroke="#263238" stroke-miterlimit="10"/>
<path d="M1488.47 64.529C1493.82 80.6615 1504.09 91.9299 1511.42 89.6998C1518.75 87.4697 1520.35 72.5831 1515 56.4522C1509.65 40.3197 1499.38 29.0513 1492.05 31.2814C1484.72 33.5099 1483.12 48.3964 1488.47 64.529Z" fill="#92E3A9" stroke="#263238" stroke-miterlimit="10"/>
<path d="M1614.03 161.802C1631.45 158.976 1644.53 150.796 1643.25 143.532C1641.96 136.268 1626.8 132.672 1609.38 135.5C1591.96 138.327 1578.88 146.507 1580.17 153.771C1581.45 161.033 1596.61 164.629 1614.03 161.802Z" fill="#92E3A9" stroke="#263238" stroke-miterlimit="10"/>
<path d="M1472.36 122.044C1486.9 135.867 1504.09 141.863 1510.75 135.433C1517.4 129.003 1511.01 112.584 1496.46 98.7607C1481.91 84.9358 1464.72 78.9421 1458.06 85.3722C1451.41 91.8006 1457.81 108.219 1472.36 122.044Z" fill="#92E3A9" stroke="#263238" stroke-miterlimit="10"/>
<path d="M1572.61 84.1244C1558.54 103.681 1554.35 124.297 1563.24 130.172C1572.14 136.048 1590.76 124.958 1604.83 105.401C1618.89 85.8439 1623.09 65.2285 1614.19 59.3528C1605.29 53.4786 1586.67 64.5692 1572.61 84.1244Z" fill="#92E3A9" stroke="#263238" stroke-miterlimit="10"/>
<path d="M1540.44 131.91L1539.11 262.736" stroke="#263238" stroke-miterlimit="10" stroke-linecap="round"/>
<path d="M1542.03 75.0588L1540.44 131.91" stroke="#263238" stroke-miterlimit="10" stroke-linecap="round"/>
<path d="M1541.92 65.7847L1542.03 70.1398" stroke="#263238" stroke-miterlimit="10" stroke-linecap="round"/>
<path d="M1563.31 127.38C1554.73 144.641 1547.75 165.607 1546.41 189.425V270.341" stroke="#263238" stroke-miterlimit="10" stroke-linecap="round"/>
<path d="M1592.7 84.2927C1584.72 93.1161 1572.99 107.886 1563.31 127.382" stroke="#263238" stroke-miterlimit="10" stroke-linecap="round"/>
<path d="M1601.95 74.9231C1601.95 74.9231 1600.18 76.4761 1597.26 79.4463" stroke="#263238" stroke-miterlimit="10" stroke-linecap="round"/>
<path d="M1509.68 133.451C1519.67 146.672 1529.7 163.978 1537.43 186.201" stroke="#263238" stroke-miterlimit="10" stroke-linecap="round"/>
<path d="M1490 111.776C1496.04 117.267 1502.85 124.403 1509.68 133.451" stroke="#263238" stroke-miterlimit="10" stroke-linecap="round"/>
<path d="M1468.98 96.4255C1468.98 96.4255 1475.08 99.4232 1483.97 106.603" stroke="#263238" stroke-miterlimit="10" stroke-linecap="round"/>
<path d="M1510.41 85.7019C1519.89 114.286 1532.61 156.525 1538.55 193.188" stroke="#263238" stroke-miterlimit="10" stroke-linecap="round"/>
<path d="M1504.63 68.7451C1506.32 73.5656 1508.28 79.2895 1510.4 85.7002" stroke="#263238" stroke-miterlimit="10" stroke-linecap="round"/>
<path d="M1498.71 52.3442C1498.71 52.3442 1500.37 56.7187 1503.04 64.2251" stroke="#263238" stroke-miterlimit="10" stroke-linecap="round"/>
<path d="M1581.04 149.809C1569.2 154.112 1553 166.116 1547.38 181.838" stroke="#263238" stroke-miterlimit="10" stroke-linecap="round"/>
<path d="M1602.92 145.547C1596.55 145.906 1588.74 147.014 1581.04 149.809" stroke="#263238" stroke-miterlimit="10" stroke-linecap="round"/>
<path d="M1617.1 145.882C1617.1 145.882 1614.99 145.592 1611.52 145.463" stroke="#263238" stroke-miterlimit="10" stroke-linecap="round"/>
<path d="M1579.86 224.686C1595.87 231.848 1611.49 232.242 1614.74 225.567C1617.99 218.893 1607.65 207.674 1591.65 200.514C1575.64 193.353 1560.02 192.959 1556.77 199.633C1553.52 206.309 1563.86 217.526 1579.86 224.686Z" fill="#92E3A9" stroke="#263238" stroke-miterlimit="10"/>
<path d="M1580.37 205.263C1574.91 202.086 1567.83 198.744 1559.84 196.854C1559.84 196.854 1554.49 193.433 1548.82 197.051C1546.66 198.434 1547.38 208.806 1547.38 208.806V262.738" stroke="#263238" stroke-miterlimit="10" stroke-linecap="round"/>
<path d="M1591.84 213.261C1591.84 213.261 1590.27 211.876 1587.49 209.874" stroke="#263238" stroke-miterlimit="10" stroke-linecap="round"/>
<path d="M1464.97 161.802C1447.55 158.976 1434.47 150.796 1435.75 143.532C1437.04 136.268 1452.2 132.672 1469.62 135.5C1487.04 138.327 1500.12 146.507 1498.83 153.771C1497.55 161.033 1482.39 164.629 1464.97 161.802Z" fill="#92E3A9" stroke="#263238" stroke-miterlimit="10"/>
<path d="M1497.58 149.674C1499.67 150.418 1501.75 151.284 1503.79 152.291C1518.18 159.393 1526.98 173.859 1526.98 189.371V260.663" stroke="#263238" stroke-miterlimit="10" stroke-linecap="round"/>
<path d="M1474.24 145.461C1480.82 145.701 1489.25 146.709 1497.58 149.674" stroke="#263238" stroke-miterlimit="10" stroke-linecap="round"/>
<path d="M1461.9 145.882C1461.9 145.882 1463.29 145.691 1465.67 145.55" stroke="#263238" stroke-miterlimit="10" stroke-linecap="round"/>
<path d="M1482.46 210.636C1467.15 219.09 1451.63 220.767 1447.79 214.384C1443.95 208.001 1453.25 195.975 1468.55 187.523C1483.86 179.071 1499.38 177.392 1503.22 183.775C1507.06 190.159 1497.76 202.185 1482.46 210.636Z" fill="#92E3A9" stroke="#263238" stroke-miterlimit="10"/>
<path d="M1478.74 192.38C1483.97 188.55 1491.14 184.179 1499.53 181.382C1499.53 181.382 1518.52 178.381 1522.85 190.136" stroke="#263238" stroke-miterlimit="10" stroke-linecap="round"/>
<path d="M1469.5 200.239C1469.5 200.239 1470.45 199.245 1472.19 197.681" stroke="#263238" stroke-miterlimit="10" stroke-linecap="round"/>
<path d="M1519.96 190.827C1519.96 190.827 1542.33 186.679 1542.33 201.199C1542.33 215.719 1526.46 227.473 1519.96 244.068C1513.46 260.663 1501.2 261.354 1494.7 244.76C1488.21 228.165 1497.59 197.741 1519.96 190.827Z" fill="#92E3A9" stroke="#263238" stroke-miterlimit="10"/>
<path d="M1535.11 191.519C1535.11 191.519 1515.63 199.126 1509.86 223.325L1535.11 191.519Z" fill="#92E3A9"/>
<path d="M1535.11 191.519C1535.11 191.519 1515.63 199.126 1509.86 223.325" stroke="#263238" stroke-miterlimit="10"/>
<path d="M1533.67 223.325V262.736" stroke="#263238" stroke-miterlimit="10" stroke-linecap="round"/>
<path d="M106.637 134.054C116.088 134.054 123.75 114.8 123.75 91.0492C123.75 67.2982 116.088 48.0442 106.637 48.0442C97.1856 48.0442 89.5239 67.2982 89.5239 91.0492C89.5239 114.8 97.1856 134.054 106.637 134.054Z" fill="#419A5B" stroke="#263238" stroke-miterlimit="10"/>
<path d="M53.4666 64.529C58.8167 80.6615 69.0935 91.9299 76.4221 89.6998C83.7506 87.4697 85.3547 72.5831 80.0046 56.4522C74.6545 40.3197 64.3775 29.0513 57.049 31.2814C49.7204 33.5099 48.1165 48.3964 53.4666 64.529Z" fill="#419A5B" stroke="#263238" stroke-miterlimit="10"/>
<path d="M179.032 161.802C196.45 158.976 209.53 150.796 208.245 143.532C206.962 136.268 191.799 132.672 174.38 135.5C156.962 138.327 143.882 146.507 145.167 153.771C146.452 161.033 161.614 164.629 179.032 161.802Z" fill="#419A5B" stroke="#263238" stroke-miterlimit="10"/>
<path d="M37.3553 122.044C51.9045 135.867 69.0933 141.863 75.7489 135.433C82.4045 129.003 76.0053 112.584 61.4561 98.7607C46.9069 84.9358 29.7181 78.9421 23.0625 85.3722C16.4086 91.8006 22.8061 108.219 37.3553 122.044Z" fill="#419A5B" stroke="#263238" stroke-miterlimit="10"/>
<path d="M137.606 84.1244C123.537 103.681 119.346 124.297 128.243 130.172C137.14 136.048 155.758 124.958 169.826 105.401C183.895 85.8439 188.086 65.2285 179.189 59.3528C170.292 53.4786 151.674 64.5692 137.606 84.1244Z" fill="#419A5B" stroke="#263238" stroke-miterlimit="10"/>
<path d="M105.436 131.91L104.112 262.736" stroke="#263238" stroke-miterlimit="10" stroke-linecap="round"/>
<path d="M107.032 75.0588L105.436 131.91" stroke="#263238" stroke-miterlimit="10" stroke-linecap="round"/>
<path d="M106.917 65.7847L107.031 70.1398" stroke="#263238" stroke-miterlimit="10" stroke-linecap="round"/>
<path d="M128.307 127.38C119.729 144.641 112.755 165.607 111.405 189.425V270.341" stroke="#263238" stroke-miterlimit="10" stroke-linecap="round"/>
<path d="M157.702 84.2927C149.724 93.1161 137.994 107.886 128.307 127.382" stroke="#263238" stroke-miterlimit="10" stroke-linecap="round"/>
<path d="M166.952 74.9231C166.952 74.9231 165.178 76.4761 162.261 79.4463" stroke="#263238" stroke-miterlimit="10" stroke-linecap="round"/>
<path d="M74.6846 133.451C84.668 146.672 94.6952 163.978 102.427 186.201" stroke="#263238" stroke-miterlimit="10" stroke-linecap="round"/>
<path d="M54.998 111.776C61.0397 117.267 67.8538 124.403 74.6848 133.451" stroke="#263238" stroke-miterlimit="10" stroke-linecap="round"/>
<path d="M33.9771 96.4255C33.9771 96.4255 40.0811 99.4232 48.9681 106.603" stroke="#263238" stroke-miterlimit="10" stroke-linecap="round"/>
<path d="M75.4067 85.7019C84.8858 114.286 97.6134 156.525 103.55 193.188" stroke="#263238" stroke-miterlimit="10" stroke-linecap="round"/>
<path d="M69.6299 68.7451C71.3165 73.5656 73.2797 79.2895 75.4049 85.7002" stroke="#263238" stroke-miterlimit="10" stroke-linecap="round"/>
<path d="M63.7129 52.3442C63.7129 52.3442 65.371 56.7187 68.0359 64.2251" stroke="#263238" stroke-miterlimit="10" stroke-linecap="round"/>
<path d="M146.044 149.809C134.2 154.112 118.003 166.116 112.383 181.838" stroke="#263238" stroke-miterlimit="10" stroke-linecap="round"/>
<path d="M167.924 145.547C161.548 145.906 153.737 147.014 146.044 149.809" stroke="#263238" stroke-miterlimit="10" stroke-linecap="round"/>
<path d="M182.102 145.882C182.102 145.882 179.994 145.592 176.516 145.463" stroke="#263238" stroke-miterlimit="10" stroke-linecap="round"/>
<path d="M144.864 224.686C160.872 231.848 176.485 232.242 179.739 225.567C182.992 218.893 172.653 207.674 156.645 200.514C140.637 193.353 125.023 192.959 121.77 199.633C118.516 206.309 128.856 217.526 144.864 224.686Z" fill="#419A5B" stroke="#263238" stroke-miterlimit="10"/>
<path d="M145.37 205.263C139.912 202.086 132.828 198.744 124.84 196.854C124.84 196.854 119.489 193.433 113.824 197.051C111.658 198.434 112.38 208.806 112.38 208.806V262.738" stroke="#263238" stroke-miterlimit="10" stroke-linecap="round"/>
<path d="M156.836 213.261C156.836 213.261 155.272 211.876 152.489 209.874" stroke="#263238" stroke-miterlimit="10" stroke-linecap="round"/>
<path d="M29.9677 161.802C12.5495 158.976 -0.530599 150.796 0.754641 143.532C2.03819 136.268 17.2013 132.672 34.6195 135.5C52.0378 138.327 65.1179 146.507 63.8326 153.771C62.5474 161.033 47.3859 164.629 29.9677 161.802Z" fill="#419A5B" stroke="#263238" stroke-miterlimit="10"/>
<path d="M62.5796 149.674C64.666 150.418 66.7457 151.284 68.7866 152.291C83.1806 159.393 91.9816 173.859 91.9816 189.371V260.663" stroke="#263238" stroke-miterlimit="10" stroke-linecap="round"/>
<path d="M39.2427 145.461C45.819 145.701 54.254 146.709 62.5794 149.674" stroke="#263238" stroke-miterlimit="10" stroke-linecap="round"/>
<path d="M26.8979 145.882C26.8979 145.882 28.2878 145.691 30.6694 145.55" stroke="#263238" stroke-miterlimit="10" stroke-linecap="round"/>
<path d="M47.455 210.636C32.1485 219.09 16.6279 220.767 12.789 214.384C8.95016 208.001 18.2454 195.975 33.5519 187.523C48.8584 179.071 64.3791 177.392 68.2179 183.775C72.0568 190.159 62.7615 202.185 47.455 210.636Z" fill="#419A5B" stroke="#263238" stroke-miterlimit="10"/>
<path d="M43.7393 192.38C48.9679 188.55 56.1396 184.179 64.5291 181.382C64.5291 181.382 83.5159 178.381 87.8473 190.136" stroke="#263238" stroke-miterlimit="10" stroke-linecap="round"/>
<path d="M34.5034 200.239C34.5034 200.239 35.448 199.245 37.1903 197.681" stroke="#263238" stroke-miterlimit="10" stroke-linecap="round"/>
<path d="M84.9599 190.827C84.9599 190.827 107.332 186.679 107.332 201.199C107.332 215.719 91.4553 227.473 84.9599 244.068C78.4646 260.663 66.1957 261.354 59.7004 244.76C53.205 228.165 62.588 197.741 84.9599 190.827Z" fill="#419A5B" stroke="#263238" stroke-miterlimit="10"/>
<path d="M100.115 191.519C100.115 191.519 80.6304 199.126 74.8569 223.325L100.115 191.519Z" fill="#419A5B"/>
<path d="M100.115 191.519C100.115 191.519 80.6304 199.126 74.8569 223.325" stroke="#263238" stroke-miterlimit="10"/>
<path d="M98.6709 223.325V262.736" stroke="#263238" stroke-miterlimit="10" stroke-linecap="round"/>
<path d="M575.479 109.621H500.545V85.8737C500.545 66.0487 517.319 49.9775 538.011 49.9775C558.703 49.9775 575.477 66.0487 575.477 85.8737V109.621H575.479Z" fill="white" stroke="#263238" stroke-miterlimit="10" stroke-linecap="round" stroke-linejoin="round"/>
<path d="M538.013 49.9777V10.2144" stroke="#263238" stroke-miterlimit="10" stroke-linecap="round" stroke-linejoin="round"/>
<path d="M1118.45 109.621H1043.52V85.8737C1043.52 66.0487 1060.29 49.9775 1080.99 49.9775C1101.68 49.9775 1118.45 66.0487 1118.45 85.8737L1118.45 109.621Z" fill="white" stroke="#263238" stroke-miterlimit="10" stroke-linecap="round" stroke-linejoin="round"/>
<path d="M1080.99 49.9777V10.2144" stroke="#263238" stroke-miterlimit="10" stroke-linecap="round" stroke-linejoin="round"/>
<path d="M1357.05 102.498H1148.2V347.063H1357.05V102.498Z" fill="white" stroke="#263238" stroke-miterlimit="10" stroke-linecap="round" stroke-linejoin="round"/>
<path d="M1357.05 102.504H1148.21V347.07H1357.05V102.504Z" fill="white" stroke="#263238" stroke-miterlimit="10" stroke-linecap="round" stroke-linejoin="round"/>
<path d="M1357.05 102.504V197.105C1345.19 208.352 1330.59 218.888 1313.28 225.595C1259.11 246.587 1188.77 223.381 1229.12 149.384C1239.34 130.655 1246.68 115.174 1251.94 102.504H1357.05Z" fill="white" stroke="#263238" stroke-miterlimit="10" stroke-linecap="round" stroke-linejoin="round"/>
<path d="M1357.05 257.156V347.07H1339.51C1314.41 338.812 1286.97 325.933 1283.31 308.431C1278.32 284.482 1328.73 265.72 1357.05 257.156Z" fill="white" stroke="#263238" stroke-miterlimit="10" stroke-linecap="round" stroke-linejoin="round"/>
<path d="M1234.58 347.07H1148.21V309.223C1184.56 275.432 1239.59 230.669 1248.72 259.838C1259.17 293.208 1237.4 327.193 1234.58 347.07Z" fill="white" stroke="#263238" stroke-miterlimit="10" stroke-linecap="round" stroke-linejoin="round"/>
<path d="M1204.91 191.352C1204.91 206.154 1174 215.689 1148.21 221.086V133.887C1169.6 147.865 1204.91 173.641 1204.91 191.352Z" fill="white" stroke="#263238" stroke-miterlimit="10" stroke-linecap="round" stroke-linejoin="round"/>
<path d="M1279.27 203.504C1295.51 203.504 1308.67 191.883 1308.67 177.548C1308.67 163.213 1295.51 151.592 1279.27 151.592C1263.04 151.592 1249.88 163.213 1249.88 177.548C1249.88 191.883 1263.04 203.504 1279.27 203.504Z" fill="white" stroke="#263238" stroke-miterlimit="10" stroke-linecap="round" stroke-linejoin="round"/>
<path d="M1202.61 242.162C1202.61 247.043 1197.97 250.999 1192.24 250.999C1186.51 250.999 1181.86 247.043 1181.86 242.162C1181.86 237.282 1186.51 233.326 1192.24 233.326C1197.97 233.326 1202.61 237.284 1202.61 242.162Z" fill="white" stroke="#263238" stroke-miterlimit="10" stroke-linecap="round" stroke-linejoin="round"/>
<path d="M1293.68 268.671C1293.68 275.381 1288 280.82 1281 280.82C1274 280.82 1268.32 275.381 1268.32 268.671C1268.32 261.961 1274 256.522 1281 256.522C1288 256.522 1293.68 261.961 1293.68 268.671Z" fill="white" stroke="#263238" stroke-miterlimit="10" stroke-linecap="round" stroke-linejoin="round"/>
<path d="M1320.2 302.911C1320.2 305.351 1318.13 307.329 1315.58 307.329C1313.04 307.329 1310.97 305.351 1310.97 302.911C1310.97 300.471 1313.04 298.493 1315.58 298.493C1318.13 298.493 1320.2 300.471 1320.2 302.911Z" fill="white" stroke="#263238" stroke-miterlimit="10" stroke-linecap="round" stroke-linejoin="round"/>
<path d="M1238.84 150.974C1247.39 142.779 1247.39 129.491 1238.84 121.296C1230.29 113.101 1216.42 113.101 1207.87 121.296C1199.31 129.492 1199.31 142.779 1207.87 150.974C1216.42 159.169 1230.29 159.169 1238.84 150.974Z" fill="white" stroke="#263238" stroke-miterlimit="10" stroke-linecap="round" stroke-linejoin="round"/>
<path d="M1288.93 480.757C1298.38 480.757 1306.04 461.503 1306.04 437.752C1306.04 414.001 1298.38 394.747 1288.93 394.747C1279.48 394.747 1271.82 414.001 1271.82 437.752C1271.82 461.503 1279.48 480.757 1288.93 480.757Z" fill="#92E3A9" stroke="#263238" stroke-miterlimit="10"/>
<path d="M1235.76 411.231C1241.11 427.364 1251.39 438.632 1258.71 436.402C1266.04 434.172 1267.65 419.286 1262.3 403.155C1256.95 387.022 1246.67 375.754 1239.34 377.984C1232.01 380.212 1230.41 395.099 1235.76 411.231Z" fill="#92E3A9" stroke="#263238" stroke-miterlimit="10"/>
<path d="M1361.32 508.505C1378.74 505.678 1391.82 497.498 1390.54 490.234C1389.25 482.97 1374.09 479.375 1356.67 482.203C1339.25 485.029 1326.17 493.209 1327.46 500.473C1328.74 507.736 1343.91 511.331 1361.32 508.505Z" fill="#92E3A9" stroke="#263238" stroke-miterlimit="10"/>
<path d="M1219.65 468.746C1234.2 482.57 1251.39 488.565 1258.04 482.135C1264.7 475.705 1258.3 459.286 1243.75 445.463C1229.2 431.638 1212.01 425.644 1205.35 432.075C1198.7 438.503 1205.1 454.922 1219.65 468.746Z" fill="#92E3A9" stroke="#263238" stroke-miterlimit="10"/>
<path d="M1319.9 430.827C1305.83 450.384 1301.64 470.999 1310.53 476.875C1319.43 482.751 1338.05 471.66 1352.12 452.103C1366.19 432.546 1370.38 411.931 1361.48 406.055C1352.58 400.181 1333.97 411.272 1319.9 430.827Z" fill="#92E3A9" stroke="#263238" stroke-miterlimit="10"/>
<path d="M1287.73 478.612L1286.4 609.439" stroke="#263238" stroke-miterlimit="10" stroke-linecap="round"/>
<path d="M1289.32 421.761L1287.73 478.612" stroke="#263238" stroke-miterlimit="10" stroke-linecap="round"/>
<path d="M1289.21 412.487L1289.32 416.842" stroke="#263238" stroke-miterlimit="10" stroke-linecap="round"/>
<path d="M1310.6 474.083C1302.02 491.343 1295.05 512.309 1293.7 536.127V617.044" stroke="#263238" stroke-miterlimit="10" stroke-linecap="round"/>
<path d="M1339.99 430.995C1332.02 439.818 1320.29 454.589 1310.6 474.084" stroke="#263238" stroke-miterlimit="10" stroke-linecap="round"/>
<path d="M1349.24 421.625C1349.24 421.625 1347.47 423.178 1344.55 426.149" stroke="#263238" stroke-miterlimit="10" stroke-linecap="round"/>
<path d="M1256.98 480.154C1266.96 493.374 1276.99 510.68 1284.72 532.903" stroke="#263238" stroke-miterlimit="10" stroke-linecap="round"/>
<path d="M1237.29 458.478C1243.33 463.969 1250.15 471.106 1256.98 480.154" stroke="#263238" stroke-miterlimit="10" stroke-linecap="round"/>
<path d="M1216.27 443.128C1216.27 443.128 1222.37 446.126 1231.26 453.306" stroke="#263238" stroke-miterlimit="10" stroke-linecap="round"/>
<path d="M1257.7 432.404C1267.18 460.988 1279.91 503.227 1285.84 539.891" stroke="#263238" stroke-miterlimit="10" stroke-linecap="round"/>
<path d="M1251.92 415.448C1253.61 420.268 1255.57 425.992 1257.7 432.403" stroke="#263238" stroke-miterlimit="10" stroke-linecap="round"/>
<path d="M1246 399.047C1246 399.047 1247.66 403.421 1250.33 410.927" stroke="#263238" stroke-miterlimit="10" stroke-linecap="round"/>
<path d="M1328.34 496.511C1316.49 500.814 1300.3 512.818 1294.68 528.54" stroke="#263238" stroke-miterlimit="10" stroke-linecap="round"/>
<path d="M1350.22 492.25C1343.84 492.608 1336.03 493.717 1328.34 496.511" stroke="#263238" stroke-miterlimit="10" stroke-linecap="round"/>
<path d="M1364.39 492.584C1364.39 492.584 1362.29 492.295 1358.81 492.166" stroke="#263238" stroke-miterlimit="10" stroke-linecap="round"/>
<path d="M1327.16 571.388C1343.16 578.551 1358.78 578.945 1362.03 572.269C1365.28 565.595 1354.94 554.377 1338.94 547.216C1322.93 540.056 1307.32 539.661 1304.06 546.336C1300.81 553.011 1311.15 564.228 1327.16 571.388Z" fill="#92E3A9" stroke="#263238" stroke-miterlimit="10"/>
<path d="M1327.66 551.966C1322.2 548.789 1315.12 545.447 1307.13 543.556C1307.13 543.556 1301.78 540.135 1296.12 543.753C1293.95 545.136 1294.67 555.508 1294.67 555.508V609.44" stroke="#263238" stroke-miterlimit="10" stroke-linecap="round"/>
<path d="M1339.13 559.963C1339.13 559.963 1337.56 558.578 1334.78 556.576" stroke="#263238" stroke-miterlimit="10" stroke-linecap="round"/>
<path d="M1212.26 508.505C1194.84 505.678 1181.76 497.498 1183.05 490.234C1184.33 482.97 1199.49 479.375 1216.91 482.203C1234.33 485.029 1247.41 493.209 1246.12 500.473C1244.84 507.736 1229.68 511.331 1212.26 508.505Z" fill="#92E3A9" stroke="#263238" stroke-miterlimit="10"/>
<path d="M1244.87 496.377C1246.96 497.12 1249.04 497.986 1251.08 498.993C1265.47 506.095 1274.27 520.562 1274.27 536.074V607.365" stroke="#263238" stroke-miterlimit="10" stroke-linecap="round"/>
<path d="M1221.53 492.164C1228.11 492.403 1236.55 493.411 1244.87 496.377" stroke="#263238" stroke-miterlimit="10" stroke-linecap="round"/>
<path d="M1209.19 492.584C1209.19 492.584 1210.58 492.393 1212.96 492.253" stroke="#263238" stroke-miterlimit="10" stroke-linecap="round"/>
<path d="M1229.75 557.339C1214.44 565.792 1198.92 567.47 1195.08 561.086C1191.24 554.703 1200.54 542.677 1215.84 534.225C1231.15 525.774 1246.67 524.095 1250.51 530.478C1254.35 536.861 1245.05 548.887 1229.75 557.339Z" fill="#92E3A9" stroke="#263238" stroke-miterlimit="10"/>
<path d="M1226.03 539.083C1231.26 535.253 1238.43 530.882 1246.82 528.084C1246.82 528.084 1265.81 525.083 1270.14 536.838" stroke="#263238" stroke-miterlimit="10" stroke-linecap="round"/>
<path d="M1216.79 546.941C1216.79 546.941 1217.74 545.948 1219.48 544.383" stroke="#263238" stroke-miterlimit="10" stroke-linecap="round"/>
<path d="M1267.25 537.53C1267.25 537.53 1289.62 533.382 1289.62 547.901C1289.62 562.421 1273.75 574.176 1267.25 590.771C1260.76 607.365 1248.49 608.057 1241.99 591.462C1235.5 574.868 1244.88 544.443 1267.25 537.53Z" fill="#92E3A9" stroke="#263238" stroke-miterlimit="10"/>
<path d="M1282.41 538.221C1282.41 538.221 1262.92 545.828 1257.15 570.028L1282.41 538.221Z" fill="#92E3A9"/>
<path d="M1282.41 538.221C1282.41 538.221 1262.92 545.828 1257.15 570.028" stroke="#263238" stroke-miterlimit="10"/>
<path d="M1280.96 570.028V609.439" stroke="#263238" stroke-miterlimit="10" stroke-linecap="round"/>
<path d="M1245.12 686.189C1240.01 670.921 1237.03 653.294 1237.03 635.741C1237.03 624.867 1238.18 614.474 1240.27 604.895H1331.42C1333.5 614.474 1334.65 624.868 1334.65 635.741C1334.65 653.294 1331.67 670.923 1326.56 686.189H1245.12Z" fill="#263238"/>
<path d="M1333.76 619.316C1334.02 621.685 1334.22 624.093 1334.37 626.526H1237.32C1237.47 624.091 1237.67 621.685 1237.93 619.316H1333.76Z" fill="#7A7A7A"/>
<path d="M1238.35 656.17C1238.05 653.78 1237.78 651.377 1237.58 648.96H1334.1C1333.9 651.377 1333.64 653.78 1333.33 656.17H1238.35Z" fill="#7A7A7A"/>
<path d="M1322.87 636.142C1322.87 638.149 1324.63 639.774 1326.8 639.774C1328.97 639.774 1330.73 638.149 1330.73 636.142C1330.73 634.134 1328.97 632.509 1326.8 632.509C1324.63 632.507 1322.87 634.134 1322.87 636.142Z" fill="#8C8C8C"/>
<path d="M1303.24 636.142C1303.24 638.149 1304.99 639.774 1307.16 639.774C1309.33 639.774 1311.09 638.149 1311.09 636.142C1311.09 634.134 1309.33 632.509 1307.16 632.509C1304.99 632.507 1303.24 634.134 1303.24 636.142Z" fill="#8C8C8C"/>
<path d="M1283.6 636.142C1283.6 638.149 1285.36 639.774 1287.53 639.774C1289.69 639.774 1291.45 638.149 1291.45 636.142C1291.45 634.134 1289.69 632.509 1287.53 632.509C1285.36 632.507 1283.6 634.134 1283.6 636.142Z" fill="#8C8C8C"/>
<path d="M1263.96 636.142C1263.96 638.149 1265.72 639.774 1267.89 639.774C1270.06 639.774 1271.82 638.149 1271.82 636.142C1271.82 634.134 1270.06 632.509 1267.89 632.509C1265.72 632.507 1263.96 634.134 1263.96 636.142Z" fill="#8C8C8C"/>
<path d="M1244.32 636.142C1244.32 638.149 1246.08 639.774 1248.25 639.774C1250.42 639.774 1252.18 638.149 1252.18 636.142C1252.18 634.134 1250.42 632.509 1248.25 632.509C1246.08 632.507 1244.32 634.134 1244.32 636.142Z" fill="#8C8C8C"/>
<path d="M1086.9 326.01L1083.89 316.05C1083.89 316.05 1082.88 307.697 1081.2 305.769C1079.53 303.842 1073.16 300.629 1070.81 298.381C1068.46 296.133 1066.45 296.132 1066.11 298.06C1065.78 299.987 1066.45 302.878 1067.46 303.522C1068.46 304.165 1071.81 307.056 1071.81 307.056C1071.81 307.056 1064.34 302.571 1062.33 300.965C1060.31 299.359 1053.04 295.812 1052.03 297.096C1051.03 298.381 1052.37 301.272 1052.37 301.272C1052.37 301.272 1048.01 300.359 1048.01 303.25C1048.01 306.141 1050.03 307.119 1050.03 307.119C1050.03 307.119 1047.16 308.035 1047.83 310.285C1048.5 312.534 1052.42 314.329 1052.42 314.329C1052.42 314.329 1048.57 314.924 1050.58 317.495C1052.59 320.065 1061.08 325.368 1065.44 327.296C1069.8 329.224 1075.17 330.83 1075.17 330.83L1085.9 338.219L1086.9 326.01Z" fill="white" stroke="#263238" stroke-miterlimit="10" stroke-linecap="round" stroke-linejoin="round"/>
<path d="M1052.37 301.274C1052.37 301.274 1058.74 305.771 1060.08 307.056C1061.42 308.34 1065.08 310.284 1065.08 310.284" stroke="#263238" stroke-miterlimit="10" stroke-linecap="round" stroke-linejoin="round"/>
<path d="M1050.23 307.402L1060.96 313.505L1062.51 314.506" stroke="#263238" stroke-miterlimit="10" stroke-linecap="round" stroke-linejoin="round"/>
<path d="M1071.81 307.056L1073.16 312.518" stroke="#263238" stroke-miterlimit="10" stroke-linecap="round" stroke-linejoin="round"/>
<path d="M1115.74 341.11L1086.9 326.01L1081.87 339.182L1111.72 365.204L1115.74 341.11Z" fill="#8DAFA8" stroke="#263238" stroke-miterlimit="10" stroke-linecap="round" stroke-linejoin="round"/>
<path d="M1137.65 275.109C1137.65 275.109 1112.2 300.135 1109.86 314.252C1107.51 328.369 1106.17 400.878 1106.17 400.878C1106.17 400.878 1123.92 403.766 1125.6 403.766C1127.27 403.766 1136.31 403.766 1136.31 403.766C1136.31 403.766 1131.96 339.277 1134.97 317.14C1137.99 295.002 1149.04 275.109 1149.04 275.109C1149.04 275.109 1144.35 273.185 1137.65 275.109Z" fill="#8DAFA8" stroke="#263238" stroke-miterlimit="10" stroke-linecap="round" stroke-linejoin="round"/>
<path d="M1119.07 396.468L1120.76 439.65C1120.76 439.65 1110.62 470.417 1117.94 503.885C1125.26 537.351 1125.83 564.881 1125.83 564.881C1125.83 564.881 1129.21 588.631 1129.21 599.966C1129.21 611.3 1125.26 656.644 1125.26 656.644C1125.26 656.644 1121.32 662.041 1116.81 667.439C1112.31 672.836 1101.04 676.074 1099.35 680.394C1097.66 684.712 1106.11 683.093 1112.87 683.093C1119.63 683.093 1131.46 680.394 1134.84 678.775C1138.22 677.156 1145.55 678.235 1147.24 677.156C1148.93 676.076 1151.18 669.599 1150.62 664.74C1150.06 659.882 1155.13 617.239 1158.51 600.505C1161.89 583.772 1156.82 551.386 1156.82 551.386C1156.82 551.386 1166.96 463.941 1167.52 458.543C1168.08 453.146 1174.28 428.316 1173.15 419.139C1172.03 409.963 1170.9 395.388 1170.9 393.229C1170.9 391.07 1119.07 396.468 1119.07 396.468Z" fill="#263238" stroke="#263238" stroke-miterlimit="10" stroke-linecap="round" stroke-linejoin="round"/>
<path d="M1144.42 446.127C1144.42 446.127 1138.79 501.726 1141.04 527.635C1143.29 553.544 1147.24 582.692 1150.05 589.711C1152.87 596.727 1156.25 633.433 1156.25 643.688C1156.25 653.943 1156.81 671.217 1156.81 671.217C1156.81 671.217 1146.67 680.932 1139.35 684.172C1132.02 687.411 1129.21 690.109 1133.15 691.729C1137.09 693.348 1144.42 694.967 1156.81 693.348C1169.21 691.729 1179.91 691.729 1181.6 687.411C1183.29 683.093 1182.73 671.756 1182.73 671.756C1182.73 671.756 1185.55 619.938 1185.55 595.108C1185.55 570.278 1177.66 541.67 1177.66 541.67L1184.42 495.249C1184.42 495.249 1197.94 470.419 1198.5 447.208C1199.07 423.998 1185.55 397.009 1184.42 395.39C1183.29 393.771 1135.97 398.628 1135.97 398.628" fill="#263238"/>
<path d="M1144.42 446.127C1144.42 446.127 1138.79 501.726 1141.04 527.635C1143.29 553.544 1147.24 582.692 1150.05 589.711C1152.87 596.727 1156.25 633.433 1156.25 643.688C1156.25 653.943 1156.81 671.217 1156.81 671.217C1156.81 671.217 1146.67 680.932 1139.35 684.172C1132.02 687.411 1129.21 690.109 1133.15 691.729C1137.09 693.348 1144.42 694.967 1156.81 693.348C1169.21 691.729 1179.91 691.729 1181.6 687.411C1183.29 683.093 1182.73 671.756 1182.73 671.756C1182.73 671.756 1185.55 619.938 1185.55 595.108C1185.55 570.278 1177.66 541.67 1177.66 541.67L1184.42 495.249C1184.42 495.249 1197.94 470.419 1198.5 447.208C1199.07 423.998 1185.55 397.009 1184.42 395.39C1183.29 393.771 1135.97 398.628 1135.97 398.628" stroke="#263238" stroke-miterlimit="10" stroke-linecap="round" stroke-linejoin="round"/>
<path d="M1128.65 444.508C1128.65 444.508 1130.34 450.985 1138.22 454.763" stroke="white" stroke-miterlimit="10" stroke-linecap="round" stroke-linejoin="round"/>
<path d="M1150.62 664.74C1150.61 664.632 1150.6 664.481 1150.59 664.336C1138.69 669.811 1126.95 665.819 1126.95 665.819C1126.95 665.819 1126.95 665.819 1126.95 663.66C1126.95 661.501 1125.26 656.644 1125.26 656.644C1125.26 656.644 1121.32 662.041 1116.81 667.439C1112.31 672.836 1101.04 676.074 1099.35 680.394C1097.66 684.712 1106.11 683.093 1112.87 683.093C1119.63 683.093 1131.46 680.394 1134.84 678.775C1138.22 677.156 1145.55 678.235 1147.24 677.156C1148.93 676.076 1151.18 669.598 1150.62 664.74Z" fill="white" stroke="#263238" stroke-miterlimit="10" stroke-linecap="round" stroke-linejoin="round"/>
<path d="M1181.6 687.411C1182.91 684.083 1182.87 676.606 1182.79 673.343C1174.63 675.583 1164.14 676.616 1164.14 676.616C1164.14 676.616 1164.14 676.616 1162.45 672.838C1160.76 669.059 1156.82 671.218 1156.82 671.218C1156.82 671.218 1146.68 680.934 1139.35 684.174C1132.03 687.412 1129.21 690.111 1133.15 691.73C1137.1 693.35 1144.42 694.969 1156.82 693.349C1169.21 691.729 1179.91 691.729 1181.6 687.411Z" fill="white" stroke="#263238" stroke-miterlimit="10" stroke-linecap="round" stroke-linejoin="round"/>
<path d="M1136.98 282.168C1136.98 282.168 1112.54 310.722 1111.87 317.46C1111.2 324.197 1117.23 399.594 1118.23 400.236C1119.23 400.878 1131.63 403.765 1136.31 403.765C1141 403.765 1146.7 403.124 1146.7 403.124C1146.7 403.124 1144.02 328.689 1146.03 312.969C1148.03 297.248 1161.43 283.131 1164.11 276.394C1166.79 269.657 1156.07 269.335 1153.06 270.298C1150.04 271.258 1136.98 282.168 1136.98 282.168Z" fill="white" stroke="#263238" stroke-miterlimit="10" stroke-linecap="round" stroke-linejoin="round"/>
<path d="M1124.26 198.108C1124.26 198.108 1113.21 212.867 1113.88 217.038C1114.55 221.209 1115.22 224.417 1113.88 226.663C1112.54 228.909 1105.17 231.154 1105.84 234.683C1106.51 238.213 1112.54 241.1 1112.54 241.1C1112.54 241.1 1115.89 259.067 1119.57 260.992C1123.25 262.916 1132.97 260.35 1132.97 260.35L1135.31 277.034C1135.31 277.034 1125.93 290.83 1132.3 291.151C1138.66 291.473 1166.79 269.655 1166.79 269.655L1164.11 260.03C1164.11 260.03 1170.14 247.198 1170.47 234.363C1170.81 221.529 1158.08 200.355 1148.03 195.862C1137.99 191.37 1130.29 193.936 1124.26 198.108Z" fill="white" stroke="#263238" stroke-miterlimit="10" stroke-linecap="round" stroke-linejoin="round"/>
<path d="M1132.97 260.35L1142.01 258.426L1134.64 269.655L1132.97 260.35Z" fill="#263238" stroke="#263238" stroke-miterlimit="10" stroke-linecap="round" stroke-linejoin="round"/>
<path d="M1118.23 241.42C1118.23 241.42 1123.92 243.345 1128.61 237.25" stroke="#263238" stroke-miterlimit="10" stroke-linecap="round" stroke-linejoin="round"/>
<path d="M1125.6 224.417C1125.6 226.188 1124.77 227.625 1123.76 227.625C1122.74 227.625 1121.91 226.188 1121.91 224.417C1121.91 222.646 1122.74 221.209 1123.76 221.209C1124.77 221.208 1125.6 222.644 1125.6 224.417Z" fill="#263238"/>
<path d="M1119.57 216.717C1119.57 216.717 1125.26 212.224 1128.28 217.68" stroke="#263238" stroke-miterlimit="10" stroke-linecap="round" stroke-linejoin="round"/>
<path d="M1126.94 198.428C1126.94 198.428 1135.64 211.261 1142.01 219.283C1148.37 227.303 1155.07 238.213 1153.06 243.988C1151.05 249.764 1144.02 247.518 1146.03 251.367C1148.03 255.216 1159.76 260.992 1167.12 260.35C1174.49 259.709 1181.86 251.367 1187.55 243.345C1193.24 235.323 1201.61 220.566 1191.57 202.599C1181.52 184.633 1167.12 176.291 1152.73 175.649C1138.33 175.008 1114.22 179.82 1111.87 189.445C1109.53 199.07 1118.9 206.129 1118.9 206.129L1126.94 198.428Z" fill="#263238" stroke="#263238" stroke-miterlimit="10" stroke-linecap="round" stroke-linejoin="round"/>
<path d="M1150.71 279.28C1150.71 279.28 1123.92 316.176 1122.58 326.123C1121.25 336.069 1128.95 405.692 1128.95 405.692C1128.95 405.692 1146.36 407.938 1163.1 405.692C1179.85 403.445 1196.25 395.745 1196.25 395.745C1196.25 395.745 1186.88 358.207 1186.88 352.431C1186.88 346.656 1189.22 307.193 1183.19 294.68C1177.17 282.168 1166.79 269.655 1166.79 269.655C1166.79 269.655 1164.78 269.333 1163.77 269.333C1162.77 269.333 1156.41 273.504 1150.71 279.28Z" fill="#8DAFA8" stroke="#263238" stroke-miterlimit="10" stroke-linecap="round" stroke-linejoin="round"/>
<path d="M1089.43 335.426L1080.73 330.935C1080.73 330.935 1077.71 322.272 1076.04 319.706C1074.36 317.14 1069.68 317.781 1067.67 318.101C1065.66 318.423 1059.63 316.818 1055.95 315.213C1052.26 313.609 1050.59 315.535 1051.93 317.46C1053.27 319.384 1056.28 321.631 1056.28 321.631C1056.28 321.631 1040.88 322.272 1039.87 322.272C1038.87 322.272 1032.84 320.667 1034.18 324.838C1035.52 329.009 1046.91 336.388 1052.6 337.351C1058.29 338.314 1073.03 337.673 1073.03 337.673L1081.73 344.09L1089.43 335.426Z" fill="white" stroke="#263238" stroke-miterlimit="10" stroke-linecap="round" stroke-linejoin="round"/>
<path d="M1056.28 321.631L1064.65 324.197L1069.01 325.48" stroke="#263238" stroke-miterlimit="10" stroke-linecap="round" stroke-linejoin="round"/>
<path d="M1034.77 322.822C1034.77 322.822 1041.9 327.214 1043.42 327.946C1044.95 328.678 1056.41 329.41 1056.41 329.41" stroke="#263238" stroke-miterlimit="10" stroke-linecap="round" stroke-linejoin="round"/>
<path d="M1037.31 328.92C1037.31 328.92 1049.03 333.313 1050.3 333.313C1051.57 333.313 1057.18 333.069 1057.18 333.069" stroke="#263238" stroke-miterlimit="10" stroke-linecap="round" stroke-linejoin="round"/>
<path d="M1153.06 300.135L1130.29 354.998L1089.43 335.426L1077.71 349.544C1077.71 349.544 1125.93 385.157 1129.61 386.762C1133.3 388.366 1140 389.008 1141.34 388.045C1142.67 387.082 1179.51 328.048 1179.51 328.048" fill="#8DAFA8"/>
<path d="M1153.06 300.135L1130.29 354.998L1089.43 335.426L1077.71 349.544C1077.71 349.544 1125.93 385.157 1129.61 386.762C1133.3 388.366 1140 389.008 1141.34 388.045C1142.67 387.082 1179.51 328.048 1179.51 328.048" stroke="#263238" stroke-miterlimit="10" stroke-linecap="round" stroke-linejoin="round"/>
<path d="M1143.49 456.94C1143.49 456.94 1140.03 518.506 1143.49 542.186C1146.95 565.865 1152.88 601.384 1152.88 601.384" stroke="white" stroke-miterlimit="10" stroke-linecap="round" stroke-linejoin="round"/>
<path d="M914.539 403.064C914.539 403.064 910.476 472.067 909.71 484.965C908.945 497.864 910.49 564.267 915.077 570.955C919.667 577.644 925.256 643.092 925.256 643.092C925.256 643.092 921.183 644.525 921.041 646.914C920.9 649.302 921.001 655.991 921.001 655.991C921.001 655.991 907.413 666.501 899.764 669.366C892.115 672.233 892.415 675.577 896.846 676.532C901.277 677.487 913.6 679.875 922.689 677.965C931.777 676.053 941.008 671.755 945.055 670.8C949.101 669.845 954.529 670.8 957.192 667.933C959.855 665.066 958.399 655.989 958.399 655.989C958.399 655.989 960.037 653.601 958.553 645.002C957.069 636.403 955.33 632.103 955.471 629.715C955.613 627.326 955.191 550.413 955.191 550.413L955.336 463.945C955.336 463.945 962.783 548.503 964.524 552.801C966.263 557.101 979.247 623.981 980.046 627.326C980.844 630.67 981.019 644.524 981.019 644.524C981.019 644.524 977.218 649.779 977.132 651.212C977.047 652.646 978.916 663.156 978.916 663.156C978.916 663.156 966.654 676.532 959.973 679.877C953.292 683.22 960.987 687.997 967.44 688.476C973.893 688.954 981.345 689.431 990.519 686.087C999.692 682.744 1011.87 670.8 1014.53 667.935C1017.19 665.068 1015.46 660.769 1014.6 658.379C1013.74 655.991 1012.36 654.081 1012.97 652.169C1013.59 650.257 1016.93 635.927 1017.33 629.238C1017.72 622.549 1018.09 616.339 1018.09 616.339C1018.09 616.339 1018.89 577.644 1016.37 561.401C1013.84 545.159 1008.12 515.539 1008.12 515.539C1008.12 515.539 1003.45 442.926 1004.15 439.581C1004.85 436.237 1007.65 424.833 1006.62 414.74C1005.6 404.646 1004.07 398.974 1004.07 398.974L914.539 403.064Z" fill="#263238" stroke="#263238" stroke-miterlimit="10" stroke-linecap="round" stroke-linejoin="round"/>
<path d="M953.225 269.539C953.225 269.539 913.637 281.879 913.57 284.726C913.504 287.574 903.826 348.324 903.826 348.324L855.45 379.994C855.45 379.994 862.281 384.424 863.508 388.536C864.732 392.649 864.732 392.649 864.732 392.649L915.371 377.116C915.371 377.116 912.827 401.164 914.104 403.061C915.381 404.96 922.932 406.859 922.932 406.859C922.932 406.859 968.116 409.389 982.993 408.757C997.869 408.124 1004.17 407.175 1005.21 404.645C1006.26 402.114 1006.9 403.063 1006.99 399.265C1007.08 395.469 1034.2 280.927 1034.24 279.03C1034.29 277.131 1033.03 274.284 1030.42 273.018C1027.81 271.753 992.703 261.944 992.703 261.944L953.225 269.539Z" fill="white" stroke="#263238" stroke-miterlimit="10" stroke-linecap="round" stroke-linejoin="round"/>
<path d="M946.962 283.146L950.531 300.072L933.459 381.701L939.423 404.53L957.335 379.626L957.045 299.38L971.201 280.702L964.947 269.916L946.962 283.146Z" fill="#92E3A9" stroke="#263238" stroke-miterlimit="10" stroke-linecap="round" stroke-linejoin="round"/>
<path d="M934.813 375.229L952.491 386.36L957.335 379.626L957.322 375.865L937.314 363.269L934.813 375.229Z" fill="#263238"/>
<path d="M944.911 326.943L942.214 339.838L957.237 352.8L957.183 337.531L944.911 326.943Z" fill="#263238"/>
<path d="M948.279 289.392L950.531 300.072L949.389 305.534L957.092 312.147L957.047 299.38L958.177 297.889L948.279 289.392Z" fill="#263238"/>
<path d="M922.168 312.685L922.996 305.295" stroke="#263238" stroke-miterlimit="10" stroke-linecap="round" stroke-linejoin="round"/>
<path d="M915.482 372.373L921.247 320.912" stroke="#263238" stroke-miterlimit="10" stroke-linecap="round" stroke-linejoin="round"/>
<path d="M951.725 292.084L941.013 269.224L955.083 260.68L951.725 292.084Z" fill="white" stroke="#263238" stroke-miterlimit="10" stroke-linecap="round" stroke-linejoin="round"/>
<path d="M941.013 269.224L936.943 287.892L946.962 283.145L941.013 269.224Z" fill="white" stroke="#263238" stroke-miterlimit="10" stroke-linecap="round" stroke-linejoin="round"/>
<path d="M952.906 183.417C952.906 183.417 941.617 219.929 940.807 235.142C939.998 250.355 944.835 256.876 948.888 258.18L952.488 259.484L951.725 292.084L963.906 275.567L964.945 269.915L988.601 247.747L993.927 233.404C993.927 233.404 1002.96 235.142 1005.87 227.318C1008.77 219.493 1005.24 215.148 1005.24 215.148C1005.24 215.148 1017.32 202.978 1013.13 188.199C1008.94 173.421 997.945 158.643 977.076 158.643C956.207 158.643 941.86 170.813 952.906 183.417Z" fill="white" stroke="#263238" stroke-miterlimit="10" stroke-linecap="round" stroke-linejoin="round"/>
<path d="M1013.13 188.199C1008.94 173.421 997.947 158.643 977.077 158.643C956.208 158.643 941.86 170.813 952.907 183.417C952.907 183.417 960.034 189.069 965.045 188.199C970.056 187.33 973.313 183.852 981.83 188.199C990.348 192.546 991.175 196.022 988.321 201.673C985.467 207.325 985.86 209.931 987.169 212.105C987.314 212.344 987.462 212.625 987.612 212.927L979.432 232.534C979.432 232.534 976.831 227.318 966.045 222.972C955.259 218.625 942.403 225.146 942.403 225.146C933.959 260.281 952.488 259.484 952.488 259.484C952.488 259.484 974.355 255.572 980.839 249.922C987.322 244.271 988.321 240.36 988.918 234.275C989.272 230.661 989.25 222.601 989.174 216.651C989.754 218.21 990.171 219.496 990.171 219.496C990.171 219.496 992.077 215.584 996.644 214.28C1001.21 212.976 1005.24 215.149 1005.24 215.149C1005.24 215.149 1017.32 202.978 1013.13 188.199Z" fill="#263238" stroke="#263238" stroke-miterlimit="10" stroke-linecap="round" stroke-linejoin="round"/>
<path d="M961.543 202.108L957.66 212.974C957.66 212.974 944.784 220.364 947.486 221.232C950.189 222.101 959.322 219.493 959.322 219.493" stroke="#263238" stroke-miterlimit="10" stroke-linecap="round" stroke-linejoin="round"/>
<path d="M947.24 231.665C947.24 231.665 952.562 236.881 962.695 230.361" stroke="white" stroke-miterlimit="10" stroke-linecap="round" stroke-linejoin="round"/>
<path d="M970.268 211.735C969.965 213.247 968.887 214.338 967.858 214.17C966.829 214.002 966.242 212.64 966.544 211.127C966.848 209.614 967.926 208.524 968.955 208.692C969.983 208.86 970.572 210.222 970.268 211.735Z" fill="#263238"/>
<path d="M954.26 209.598C953.957 211.111 952.879 212.202 951.85 212.034C950.821 211.866 950.234 210.503 950.536 208.991C950.84 207.478 951.917 206.387 952.946 206.555C953.975 206.723 954.564 208.084 954.26 209.598Z" fill="#263238"/>
<path d="M950.597 200.532C950.597 200.532 953.987 198.609 958.848 200.532" stroke="#263238" stroke-miterlimit="10" stroke-linecap="round" stroke-linejoin="round"/>
<path d="M967.745 201.601C967.745 201.601 973.112 200.959 977.022 205.447" stroke="#263238" stroke-miterlimit="10" stroke-linecap="round" stroke-linejoin="round"/>
<path d="M963.908 275.565L967.971 288.524L997.377 259.731L988.602 247.747L964.947 269.915L963.908 275.565Z" fill="white" stroke="#263238" stroke-miterlimit="10" stroke-linecap="round" stroke-linejoin="round"/>
<path d="M880.403 403.759C880.403 403.759 874.07 400.575 876.928 400.12C879.787 399.666 884.729 401.484 884.729 401.484C884.729 401.484 878.659 397.162 881.739 397.39C884.819 397.618 889.718 401.256 889.718 401.256C889.718 401.256 888.148 397.39 891.206 398.526C894.266 399.664 895.883 401.482 895.883 401.482C895.883 401.482 892.469 405.348 889.612 405.803C886.753 406.257 887.455 406.713 885.573 406.031C883.689 405.351 880.403 403.759 880.403 403.759Z" fill="white" stroke="#263238" stroke-miterlimit="10" stroke-linecap="round" stroke-linejoin="round"/>
<path d="M923.809 383.448C923.809 383.448 907.592 383.452 905.214 385.316C902.836 387.179 899.611 392.024 898.427 392.77C897.243 393.515 884.397 393.889 884.724 396.497C885.051 399.107 892.824 399.478 892.824 399.478L887.246 405.07C887.246 405.07 875.282 400.97 874.452 403.206C873.623 405.443 887.124 410.288 890.236 410.288C893.348 410.288 899.616 408.424 900.81 407.306C902.002 406.188 914.804 395.049 914.804 395.049C915.362 396.28 924.666 394.202 925.066 392.901C925.415 391.762 923.809 383.448 923.809 383.448Z" fill="white" stroke="#263238" stroke-miterlimit="10" stroke-linecap="round" stroke-linejoin="round"/>
<path d="M892.823 399.478C892.823 399.478 899.95 400.12 902.809 399.666C905.667 399.212 909.081 395.344 909.081 395.344" stroke="#263238" stroke-miterlimit="10" stroke-linecap="round" stroke-linejoin="round"/>
<path d="M1002.79 296.434L987.171 357.184L923.809 383.446L925.479 396.736C925.479 396.736 979.92 390.784 993.204 387.62C1006.49 384.456 1022.88 375.597 1025.02 368.635C1027.16 361.674 1038.01 287.259 1037.82 281.562C1037.62 275.867 1036.97 275.234 1034.37 273.652C1031.76 272.07 1012.36 268.589 1012.36 268.589" fill="white"/>
<path d="M1002.79 296.434L987.171 357.184L923.809 383.446L925.479 396.736C925.479 396.736 979.92 390.784 993.204 387.62C1006.49 384.456 1022.88 375.597 1025.02 368.635C1027.16 361.674 1038.01 287.259 1037.82 281.562C1037.62 275.867 1036.97 275.234 1034.37 273.652C1031.76 272.07 1012.36 268.589 1012.36 268.589" stroke="#263238" stroke-miterlimit="10" stroke-linecap="round" stroke-linejoin="round"/>
<path d="M933.469 379.967L935.791 393.572" stroke="#263238" stroke-miterlimit="10" stroke-linecap="round" stroke-linejoin="round"/>
<path d="M861.816 376.2C861.816 376.2 872.347 377.782 871.104 388.539" stroke="#263238" stroke-miterlimit="10" stroke-linecap="round" stroke-linejoin="round"/>
<path d="M855.452 379.996L846.535 384.121C846.535 384.121 840.734 382.63 839.179 382.63C837.622 382.63 835.634 384.493 831.011 382.63C826.386 380.767 822.557 378.157 822.478 381.512C822.398 384.866 824.672 387.475 826.989 388.22C829.307 388.965 832.002 390.083 832.002 390.083L817.278 404.245C817.278 404.245 809.721 411.327 811.639 412.445C813.557 413.563 830.761 409.835 833.502 409.09C836.243 408.345 851.942 402.382 854.346 399.401C856.749 396.419 857.96 394.556 857.96 394.556L864.734 392.651C864.734 392.651 863.028 383.325 855.452 379.996Z" stroke="#263238" stroke-miterlimit="10" stroke-linecap="round" stroke-linejoin="round"/>
<path d="M848.996 395.303C848.996 395.303 841.242 394.184 838.095 395.676C834.947 397.167 830.511 403.875 830.511 403.875C830.511 403.875 820.327 406.857 817.941 409.094" stroke="#263238" stroke-miterlimit="10" stroke-linecap="round" stroke-linejoin="round"/>
<path d="M1405.01 674.953H221.24" stroke="#263238" stroke-miterlimit="10" stroke-linecap="round" stroke-linejoin="round"/>
<path d="M473.948 445.093C473.948 445.093 475.419 454.807 476.748 457.777C478.077 460.747 479.405 464.989 477.634 467.959C475.863 470.929 461.632 477.004 461.632 477.004L461.249 439.109L473.255 437.283L473.948 445.093Z" fill="white" stroke="#263238" stroke-miterlimit="10" stroke-linecap="round" stroke-linejoin="round"/>
<path d="M470.479 454.067C470.479 454.067 470.106 458.199 469.219 462.866C468.331 467.533 468.159 472.938 462.845 472.515" fill="white"/>
<path d="M470.479 454.067C470.479 454.067 470.106 458.199 469.219 462.866C468.331 467.533 468.159 472.938 462.845 472.515" stroke="#263238" stroke-miterlimit="10" stroke-linecap="round" stroke-linejoin="round"/>
<path d="M459.035 277.459L467.891 370.376L474.09 440.804L459.485 441.223L451.949 378.436L459.035 277.459Z" fill="white" stroke="#263238" stroke-miterlimit="10" stroke-linecap="round" stroke-linejoin="round"/>
<path d="M364.485 386.823C364.485 386.823 360.192 423.043 361.068 427.698C361.943 432.356 364.91 536.872 364.91 536.872C364.91 536.872 358.435 573.609 358.679 580.334C358.924 587.06 361.073 661.05 361.073 661.05C361.073 661.05 356.679 675.021 356.003 678.125C355.326 681.229 356.202 685.887 358.317 686.921C360.432 687.955 374.404 689.508 380.39 688.474C386.376 687.44 393.442 686.404 394.84 679.161C396.238 671.918 391.833 661.569 392.509 658.465C393.185 655.36 393.976 649.669 394.135 646.047C394.293 642.426 394.43 639.322 394.43 639.322C394.43 639.322 405.532 571.023 405.623 568.955C405.714 566.886 412.336 502.209 412.336 502.209C412.336 502.209 411.573 593.272 410.938 607.76C410.302 622.247 407.976 638.287 407.885 640.356C407.794 642.424 405.599 667.779 406.048 669.848C406.497 671.918 410.209 673.469 413.427 673.986C416.645 674.504 425.308 673.986 426.927 673.986C428.548 673.986 440.314 676.574 447.875 676.574C455.437 676.574 464.121 675.539 462.706 670.882C461.291 666.225 449.075 661.569 445.386 659.499C441.697 657.429 436.841 645.012 436.841 645.012C436.841 645.012 440.513 635.181 440.741 630.007C440.969 624.833 457.272 548.774 459.824 527.561C462.376 506.347 460.148 409.591 460.148 409.591L462.141 387.348C462.146 387.347 398.525 398.723 364.485 386.823Z" fill="#263238" stroke="#263238" stroke-miterlimit="10" stroke-linecap="round" stroke-linejoin="round"/>
<path d="M381.097 249.882C381.097 249.882 359.842 266.428 350.1 271.52C340.357 276.61 329.286 283.399 329.286 283.399C329.286 283.399 316.444 387.347 317.773 391.165C319.102 394.984 324.415 449.715 324.415 449.715L343.899 448.866L348.771 382.255L358.956 350.011L360.285 388.195C360.285 388.195 359.4 393.711 364.271 395.832C369.142 397.954 411.653 401.773 432.91 400.499C454.165 399.226 460.807 391.59 461.693 387.347C462.578 383.105 463.902 308.606 464.344 300.545C464.788 292.484 460.418 271.425 449.903 259.663C447.022 256.441 414.753 250.732 414.753 250.732C414.753 250.732 392.61 243.941 381.097 249.882Z" fill="white" stroke="#263238" stroke-miterlimit="10" stroke-linecap="round" stroke-linejoin="round"/>
<path d="M408.804 269.718L420.813 285.284L416.575 380.031C416.575 380.031 425.757 391.536 427.17 393.567C428.584 395.598 439.884 377.324 439.884 377.324L426.464 286.636L432.114 270.394L428.909 260.892L413.041 256.183L408.804 269.718Z" fill="#92E3A9" stroke="#263238" stroke-miterlimit="10" stroke-linecap="round" stroke-linejoin="round"/>
<path d="M419.074 324.142L430.931 316.833L428.892 303.05L419.766 308.675L419.074 324.142Z" fill="#263238"/>
<path d="M420.812 285.284L420.559 290.951L426.534 287.116L426.464 286.638L432.114 270.395L431.537 268.682L415.797 278.782L420.812 285.284Z" fill="#263238"/>
<path d="M439.884 377.325L438.267 366.396L416.735 376.421L416.573 380.031C416.573 380.031 419.759 384.023 422.667 387.72L437.736 380.704C439.017 378.726 439.884 377.325 439.884 377.325Z" fill="#263238"/>
<path d="M418.194 343.802L417.494 359.448L435.533 347.926L433.478 334.04L418.194 343.802Z" fill="#263238"/>
<path d="M358.956 350.011L375.341 315.22" stroke="#263238" stroke-miterlimit="10" stroke-linecap="round" stroke-linejoin="round"/>
<path d="M423.685 275.419L432.576 249.866L420.722 244.187L423.685 275.419Z" fill="white" stroke="#263238" stroke-miterlimit="10" stroke-linecap="round" stroke-linejoin="round"/>
<path d="M432.576 249.865L444.43 263.707L428.909 260.891L432.576 249.865Z" fill="white" stroke="#263238" stroke-miterlimit="10" stroke-linecap="round" stroke-linejoin="round"/>
<path d="M418.87 169.655C418.87 169.655 422.945 185.982 427.389 195.565C431.835 205.148 432.945 211.18 431.464 220.763C429.982 230.346 429.982 234.604 427.76 235.669C425.537 236.734 419.61 237.799 419.61 237.799L423.685 275.419L414.424 262.997L384.418 235.669L368.12 194.144C368.12 194.144 359.601 184.206 370.712 171.785C381.827 159.363 411.462 160.782 418.87 169.655Z" fill="white" stroke="#263238" stroke-miterlimit="10" stroke-linecap="round" stroke-linejoin="round"/>
<path d="M372.197 206.566L377.383 204.437C377.383 204.437 372.937 200.888 374.42 195.563C375.902 190.24 391.089 187.045 389.237 182.787C387.385 178.529 369.974 177.818 381.458 172.85C392.941 167.881 413.316 174.625 419.983 175.334C426.651 176.043 420.354 162.202 420.354 162.202C420.354 162.202 432.208 160.073 422.947 151.91C413.685 143.748 375.531 148.715 364.789 159.719C354.046 170.72 356.269 179.594 359.602 185.628C362.937 191.662 368.864 205.859 368.864 205.859L372.197 206.566Z" fill="#263238" stroke="#263238" stroke-miterlimit="10" stroke-linecap="round" stroke-linejoin="round"/>
<path d="M377.381 208.696C377.381 208.696 369.972 201.243 365.899 204.792C361.824 208.341 367.751 217.214 372.566 220.407C377.381 223.602 381.827 219.698 381.827 219.698" fill="white"/>
<path d="M377.381 208.696C377.381 208.696 369.972 201.243 365.899 204.792C361.824 208.341 367.751 217.214 372.566 220.407C377.381 223.602 381.827 219.698 381.827 219.698" stroke="#263238" stroke-miterlimit="10" stroke-linecap="round" stroke-linejoin="round"/>
<path d="M418.87 183.143C418.87 183.143 415.166 180.303 413.314 184.207C411.462 188.112 412.574 192.37 412.574 192.37L424.428 209.406L412.945 211.89" stroke="#263238" stroke-miterlimit="10" stroke-linecap="round" stroke-linejoin="round"/>
<path d="M417.018 218.633C417.018 218.633 409.239 221.828 401.46 215.794" stroke="#263238" stroke-miterlimit="10" stroke-linecap="round" stroke-linejoin="round"/>
<path d="M403.312 186.336C403.312 186.336 393.681 182.787 388.866 191.305" stroke="#263238" stroke-miterlimit="10" stroke-linecap="round" stroke-linejoin="round"/>
<path d="M402.386 201.242C403.717 201.242 404.795 199.653 404.795 197.693C404.795 195.733 403.717 194.144 402.386 194.144C401.056 194.144 399.978 195.733 399.978 197.693C399.978 199.653 401.056 201.242 402.386 201.242Z" fill="#263238"/>
<path d="M423.316 193.079C423.316 195.039 422.238 196.628 420.908 196.628C419.578 196.628 418.499 195.039 418.499 193.079C418.499 191.119 419.577 189.531 420.908 189.531C422.238 189.531 423.316 191.119 423.316 193.079Z" fill="#263238"/>
<path d="M419.612 237.799L402.572 236.378L421.464 259.802L419.612 237.799Z" fill="#263238" stroke="#263238" stroke-miterlimit="10"/>
<path d="M384.42 235.669L376.641 248.801L401.089 282.517L414.426 262.997L384.42 235.669Z" fill="white" stroke="#263238" stroke-miterlimit="10" stroke-linecap="round" stroke-linejoin="round"/>
<path d="M357.637 490.919H317.977V474.795C317.977 470.958 321.224 467.848 325.228 467.848H350.388C354.392 467.848 357.639 470.957 357.639 474.795L357.637 490.919Z" stroke="#263238" stroke-width="4" stroke-miterlimit="10" stroke-linecap="round" stroke-linejoin="round"/>
<path d="M387.179 562.526H287.35C282.026 562.526 277.711 558.391 277.711 553.29V495.531C277.711 490.431 282.027 486.296 287.35 486.296H387.179C392.504 486.296 396.819 490.431 396.819 495.531V553.29C396.819 558.391 392.504 562.526 387.179 562.526Z" fill="#636363" stroke="#263238" stroke-miterlimit="10" stroke-linecap="round" stroke-linejoin="round"/>
<path d="M343.899 448.866C343.899 448.866 347 453.533 350.1 457.775C353.2 462.017 358.956 464.139 358.513 466.261C358.071 468.383 355.413 469.654 353.642 469.231C351.871 468.806 344.785 463.291 344.785 463.291L346.114 474.321C346.114 474.321 347.885 478.14 344.785 479.413C341.685 480.687 337.257 480.687 336.372 479.413C335.486 478.14 334.601 476.02 334.601 476.02C334.601 476.02 327.073 476.02 324.859 474.746C322.644 473.473 319.988 471.353 320.429 465.837C320.873 460.322 324.415 449.715 324.415 449.715L343.899 448.866Z" fill="white" stroke="#263238" stroke-miterlimit="10" stroke-linecap="round" stroke-linejoin="round"/>
<path d="M662.784 423.364H618.848V439.149H662.784V423.364Z" fill="white" stroke="#263238" stroke-miterlimit="10" stroke-linecap="round" stroke-linejoin="round"/>
<path d="M725.845 430.728H555.787C551.938 430.728 548.816 427.739 548.816 424.049V310.032C548.816 306.345 551.936 303.354 555.787 303.354H725.847C729.696 303.354 732.818 306.343 732.818 310.032V424.049C732.816 427.739 729.696 430.728 725.845 430.728Z" fill="#263238" stroke="#263238" stroke-miterlimit="10" stroke-linecap="round" stroke-linejoin="round"/>
<path d="M548.816 410.21V424.051C548.816 427.739 551.936 430.73 555.787 430.73H725.847C729.696 430.73 732.818 427.74 732.818 424.051V410.21H548.816Z" fill="white" stroke="#263238" stroke-miterlimit="10" stroke-linecap="round" stroke-linejoin="round"/>
<path d="M851.109 303.974L794.654 304.422C794.654 304.422 790.922 303.974 789.989 306.657C789.989 306.657 780.191 330.349 779.724 338.842C779.257 347.336 781.591 345.995 777.857 357.171C774.124 368.346 763.394 394.721 757.327 416.179C749.175 445.019 747.05 475.626 746.534 505.392C746.451 510.169 743.471 551.269 751.231 551.269C757.671 551.269 817.069 558.811 817.785 547.84C820.638 504.112 812.395 461.385 828.248 418.857C834.404 402.342 841.465 384.897 846.688 367.619C851.932 350.269 852.826 332.383 856.241 314.703C858.574 302.633 851.109 303.974 851.109 303.974Z" fill="#263238" stroke="#263238" stroke-miterlimit="10"/>
<path d="M856.638 309.33C856.081 303.087 851.109 303.974 851.109 303.974L794.655 304.422C794.655 304.422 790.922 303.974 789.989 306.657C789.989 306.657 780.191 330.349 779.724 338.843C779.544 342.126 779.781 343.939 779.925 345.575L781.124 347.336C781.124 347.336 782.99 362.982 805.385 363.876C827.781 364.77 840.378 354.936 845.044 345.549C849.709 336.162 851.576 320.963 855.309 312.022C855.683 311.123 856.145 310.225 856.638 309.33Z" fill="#BABABA" stroke="#263238" stroke-miterlimit="10" stroke-linecap="round" stroke-linejoin="round"/>
<path d="M843.551 326.79C839.765 339.849 842.036 343.477 838.25 365.967C834.463 388.457 820.833 413.851 815.532 437.066C810.231 460.282 812.503 542.263 813.26 545.891C813.549 547.273 813.616 549.496 813.591 551.72C816.133 550.81 817.673 549.551 817.784 547.84C820.636 504.112 812.393 461.385 828.246 418.856C834.403 402.34 841.465 384.895 846.687 367.617C851.93 350.268 852.823 332.382 856.24 314.701C857.674 307.285 855.408 304.939 853.448 304.228L853.393 304.299C853.393 304.299 847.336 313.73 843.551 326.79Z" fill="#BABABA" stroke="#263238" stroke-miterlimit="10" stroke-linecap="round" stroke-linejoin="round"/>
<path d="M734.51 656.891L734.132 656.6V606.105H741.705V574.182H713.686V606.105H721.258V657.468L654.243 677.929V683.008C654.243 686.215 656.955 688.813 660.301 688.813C663.648 688.813 666.36 686.215 666.36 683.008V682.283L722.394 676.04V683.734C722.394 686.539 724.768 688.813 727.694 688.813C730.622 688.813 732.995 686.539 732.995 683.734V675.788L791.301 682.284V683.01C791.301 686.216 794.014 688.815 797.358 688.815C800.705 688.815 803.417 686.216 803.417 683.01V677.931L734.51 656.891Z" fill="#263238" stroke="#263238" stroke-miterlimit="10"/>
<path d="M815.331 580.064H647.054C643.328 580.064 640.308 577.17 640.308 573.6V549.503C640.308 545.933 643.328 543.039 647.054 543.039H815.331C819.057 543.039 822.078 545.933 822.078 549.503V573.6C822.078 577.172 819.059 580.064 815.331 580.064Z" fill="#263238" stroke="#263238" stroke-miterlimit="10"/>
<path d="M566.496 686.204H558.948L554.036 475.332H573.095L566.496 686.204Z" fill="#263238" stroke="#263238" stroke-miterlimit="10"/>
<path d="M939.73 686.204H932.182L927.27 475.332H946.33L939.73 686.204Z" fill="#263238" stroke="#263238" stroke-miterlimit="10"/>
<path d="M515.194 442.714L521.688 693.661H529.504L535.997 485.584H976.835L982.488 693.661H994.317L996.852 442.714H515.194Z" fill="white" stroke="#263238" stroke-miterlimit="10" stroke-linecap="round" stroke-linejoin="round"/>
<path d="M996.494 448.739H515.41V455.681H996.494V448.739Z" fill="#757575" stroke="#263238" stroke-miterlimit="10"/>
<path d="M1000.24 438.6H505.047V449.571H1000.24V438.6Z" fill="white" stroke="#263238" stroke-miterlimit="10" stroke-linecap="round" stroke-linejoin="round"/>
<path d="M563.982 46.7924C563.942 46.506 563.958 46.2047 564.036 45.9082C564.351 44.7145 565.571 43.997 566.765 44.3125C567.406 44.4805 568.042 44.6559 568.673 44.8388C569.857 45.1822 570.544 46.4196 570.208 47.6095C569.865 48.8004 568.628 49.4872 567.444 49.1438C566.841 48.9703 566.24 48.8032 565.634 48.6501C564.729 48.4065 564.105 47.6583 563.982 46.7924ZM586.432 55.9007C586.366 55.432 586.442 54.943 586.692 54.5025C587.296 53.4207 588.656 53.0352 589.736 53.6323C596.874 57.6008 603.958 62.5994 610.786 68.5044C611.718 69.3153 611.825 70.7279 611.014 71.6597C610.203 72.5916 608.791 72.6989 607.859 71.8881C601.266 66.1888 594.439 61.3597 587.562 57.5468C586.927 57.1919 586.527 56.5713 586.432 55.9007ZM622.963 86.2818C622.862 85.5657 623.113 84.8063 623.691 84.2927C624.617 83.4706 626.03 83.5557 626.852 84.4818C632.132 90.4336 637.472 97.1805 642.735 104.549C643.455 105.556 643.221 106.951 642.215 107.671C641.208 108.392 639.813 108.158 639.093 107.151C633.922 99.9155 628.679 93.2876 623.508 87.4531C623.2 87.105 623.022 86.6985 622.963 86.2818ZM651.091 124.788C650.971 123.942 651.344 123.065 652.112 122.578C653.154 121.919 654.54 122.234 655.199 123.276C658.413 128.378 661.62 133.615 664.73 138.686L668.531 144.881C669.179 145.938 668.849 147.313 667.799 147.96C666.748 148.607 665.367 148.278 664.72 147.228L660.911 141.021C657.816 135.967 654.611 130.737 651.413 125.659C651.242 125.384 651.133 125.088 651.091 124.788ZM676.377 165.271C676.26 164.445 676.615 163.577 677.362 163.086C678.395 162.408 679.783 162.69 680.461 163.723C685.613 171.532 690.407 178.224 695.115 184.17C695.884 185.137 695.718 186.548 694.744 187.311C693.777 188.079 692.366 187.914 691.603 186.94C686.82 180.884 681.952 174.097 676.725 166.178C676.534 165.907 676.422 165.59 676.377 165.271ZM705.972 202.606C705.877 201.936 706.089 201.229 706.6 200.711C707.472 199.837 708.885 199.829 709.766 200.7C712.279 203.2 714.863 205.596 717.443 207.82C721.059 210.933 724.919 213.892 728.922 216.598C729.943 217.29 730.213 218.679 729.522 219.707C728.83 220.728 727.441 220.999 726.413 220.308C722.263 217.503 718.263 214.444 714.517 211.21C711.853 208.911 709.193 206.446 706.604 203.878C706.248 203.524 706.038 203.075 705.972 202.606ZM744.955 229.671C744.897 229.261 744.949 228.835 745.132 228.438C745.642 227.309 746.967 226.816 748.095 227.327C755.569 230.716 763.485 233.478 771.627 235.538C772.825 235.839 773.549 237.058 773.248 238.256C772.946 239.455 771.727 240.179 770.529 239.877C762.126 237.755 753.958 234.903 746.243 231.401C745.525 231.071 745.059 230.407 744.955 229.671ZM790.893 241.863C790.868 241.688 790.863 241.509 790.883 241.327C791.001 240.095 792.103 239.201 793.328 239.32C801.586 240.134 809.979 240.272 818.288 239.718C819.525 239.635 820.588 240.574 820.67 241.804C820.752 243.041 819.82 244.103 818.583 244.185C810.037 244.753 801.39 244.611 792.89 243.772C791.84 243.668 791.034 242.859 790.893 241.863ZM838.352 239.163C838.188 238.011 838.943 236.914 840.096 236.664C848.292 234.891 856.31 232.426 863.925 229.32C865.067 228.853 866.374 229.404 866.842 230.547C867.309 231.689 866.757 232.996 865.615 233.463C857.761 236.663 849.489 239.211 841.041 241.033C839.836 241.29 838.644 240.523 838.381 239.318C838.373 239.266 838.359 239.215 838.352 239.163ZM882.506 221.637C882.384 220.778 882.77 219.893 883.552 219.417C890.694 215.037 897.368 209.98 903.377 204.399C904.281 203.56 905.696 203.612 906.542 204.515C907.38 205.418 907.329 206.834 906.426 207.679C900.2 213.463 893.293 218.7 885.894 223.236C884.843 223.883 883.462 223.554 882.814 222.497C882.648 222.222 882.547 221.93 882.506 221.637Z" fill="black"/>
</svg>
