<svg width="181" height="201" viewBox="0 0 181 201" fill="none" xmlns="http://www.w3.org/2000/svg">
<path d="M56.8317 200.604C56.7544 200.604 56.6771 200.595 56.5999 200.575C56.1731 200.466 55.8162 200.065 55.6617 199.515L0.204228 2.88699C0.0313025 2.26805 0.141681 1.56989 0.483852 1.10445C0.829702 0.634063 1.3448 0.480558 1.80839 0.708326L179.303 88.7704C179.796 89.013 180.124 89.6468 180.124 90.3549C180.124 91.0629 179.796 91.6918 179.303 91.9344C177.64 92.7563 138.397 112.077 120.913 113.28C120.645 113.295 120.38 113.201 120.155 113.003C84.702 81.3184 48.9985 48.7427 13.8359 16.0035C48.4614 61.161 101.91 130.353 102.506 131.125C102.992 131.759 103.021 132.794 102.565 133.472L57.7551 200.06C57.5197 200.407 57.1849 200.604 56.8317 200.604ZM4.44641 8.43266L57.2769 195.747L99.8974 132.413C92.204 122.455 35.974 49.6339 4.44641 8.43266ZM10.0977 8.41283C46.7946 42.6523 84.1281 76.7532 121.193 109.884C135.605 108.67 165.366 95.0092 175.204 90.3301L10.0977 8.41283Z" fill="black"/>
</svg>
