<svg width="257" height="308" viewBox="0 0 257 308" fill="none" xmlns="http://www.w3.org/2000/svg">
<path d="M77.4374 187.905C83.1066 178.945 81.0734 166.529 79.1871 155.353C77.0581 142.725 75.3828 129.79 77.4259 117.495C81.1802 94.9078 98.3515 76.6601 119.459 72.3667C140.565 68.0722 164.533 77.7502 179.252 96.1723C184.84 103.165 189.203 111.436 190.765 120.232C192.605 130.621 190.465 140.995 187.681 150.753C184.704 161.194 180.715 171.735 172.984 178.617C166.632 184.27 158.366 186.914 150.562 190.13C138.686 195.023 127.478 201.487 117.249 209.337C116.333 210.041 115.387 210.77 114.254 211C112.574 211.337 110.814 210.513 109.205 209.678C97.7622 203.741 86.9933 196.124 77.4374 187.905Z" fill="#FFDDBC"/>
<path d="M75.6089 188.143C89.2723 198.304 103.771 207.107 118.823 214.386C113.638 227.28 108.293 240.44 99.2477 250.431C94.8305 255.31 89.0886 259.51 82.4707 259.249C74.6222 258.941 67.8332 252.597 61.9541 246.564C59.6733 244.226 57.3414 241.773 56.1323 238.696C53.6553 232.401 56.5645 225.729 59.4232 220.071C64.9826 209.066 70.5429 198.059 75.6089 188.143Z" fill="#ACD4F7"/>
<g opacity="0.1294">
<path d="M188.075 159.858C187.541 157.945 185.308 156.927 183.778 157.873C182.48 158.967 183.026 158.383 181.737 160.318C181.577 160.573 181.41 160.829 181.242 161.08C180.664 161.818 178.757 164.268 178.247 164.769C178.995 164.167 178.964 164.196 178.153 164.851C173.55 169.053 172.365 170.372 167.755 173.226C166.502 174.1 163.895 176.279 160.174 177.799C155.567 179.974 144.515 182.581 137.141 186.189C135.006 187.19 130.243 189.517 129.508 189.972C129.489 189.981 129.482 189.984 129.46 189.993C126.809 191.118 124.134 192.24 121.744 193.879C116.989 197.248 117.244 197.298 114.018 199.86C112.003 201.662 109.119 203.779 108.077 206.247C107.999 206.447 107.957 206.644 107.909 206.842C106.41 207.739 105.234 209.271 104.808 211.494C103.891 217.069 101.224 222.558 96.6771 231.051C91.9155 239.842 91.6454 241.812 85.4055 248.569C82.1933 251.678 84.2562 249.889 80.5256 252.538C79.6203 253.198 78.4987 253.641 77.9568 254.709C74.7965 258.96 79.8933 265.236 84.3634 263.229C90.4441 261.21 95.1775 256.445 99.2707 251.529C104.084 244.887 107.561 238.558 112.735 231.173C114.948 227.953 116.482 224.253 117.905 220.537C118.677 218.115 119.901 215.526 119.245 212.821C119.244 212.814 119.24 212.805 119.24 212.805C118.812 212.616 118.38 212.425 117.953 212.232C117.212 211.896 116.474 211.55 115.74 211.192C123.834 202.675 129.068 198.408 138.259 194.094C144.008 191.833 149.995 190.18 155.863 188.241C161.33 186.621 166.604 184.3 171.338 181.112C174.279 178.658 173.901 178.834 175.931 176.996C176.259 176.698 175.804 177.064 175.534 177.286C176.608 176.427 177.645 175.52 178.673 174.6C180.29 173.208 181.647 171.531 182.888 169.76C182.895 169.756 182.915 169.733 182.956 169.685C185.495 166.26 188.817 163.017 188.075 159.858Z" fill="black"/>
</g>
<g opacity="0.1294">
<path d="M113.395 200.354C113.618 200.178 113.826 200.017 114.02 199.86C114.092 199.793 114.174 199.727 114.243 199.663C113.962 199.891 113.677 200.124 113.395 200.354Z" fill="black"/>
</g>
<path d="M76.1116 260.021C72.02 258.277 68.5915 255.718 66.6568 254.104C62.6894 250.798 53.5733 241.932 54.5506 231.053C54.9007 227.133 56.5836 223.608 58.0703 220.496L74.3162 186.464C74.4477 186.186 74.6855 185.992 74.964 185.927C75.2453 185.863 75.5436 185.931 75.7875 186.122C83.6847 192.275 111.352 209.694 119.324 213.53C119.582 213.654 119.788 213.884 119.896 214.17C120.004 214.456 120.007 214.769 119.899 215.043C114.652 228.554 109.217 238.638 100.514 251.014C97.7564 254.935 94.6876 258.923 90.193 260.791C85.4122 262.78 80.3998 261.849 76.1116 260.021ZM75.6261 188.666L59.8907 221.626C58.4192 224.71 56.8973 227.894 56.5827 231.398C55.7103 241.109 64.1602 249.284 67.8351 252.348C71.5176 255.419 80.9867 262.183 89.38 258.693C93.4117 257.017 96.2778 253.277 98.8721 249.591C107.355 237.525 112.499 228.077 117.609 215.102C108.844 210.599 84.3125 195.155 75.6261 188.666Z" fill="black"/>
<path d="M115.845 213.562C115.746 213.519 115.648 213.46 115.559 213.381C115.105 212.986 115.012 212.276 115.347 211.8C123.112 200.78 135.793 195.932 148.053 191.244C159.504 186.865 171.344 182.336 178.968 172.798C183.07 167.667 189.876 153.18 191.455 138.38C192.625 127.42 191.336 117.863 187.624 109.985C180.676 95.2337 164.762 78.0085 147.776 73.6278C131.593 69.4572 116.116 70.6956 104.195 77.1156C93.2387 83.0188 84.662 93.4947 80.0486 106.615C75.7336 118.88 74.9723 133 77.8423 147.448C78.2373 149.437 78.7083 151.462 79.1642 153.422C80.1194 157.523 81.1021 161.764 81.4889 166.032C82.1789 173.707 80.9269 181.287 77.8675 187.954C77.6189 188.494 77.0048 188.684 76.5005 188.386C75.9944 188.083 75.7842 187.399 76.0328 186.859C78.9246 180.555 80.1097 173.388 79.4572 166.132C79.0873 162.038 78.1226 157.884 77.1901 153.866C76.7305 151.888 76.2557 149.844 75.8502 147.815C72.8923 132.933 73.6865 118.376 78.1388 105.711C82.9275 92.0986 91.8344 81.225 103.221 75.0914C115.55 68.4492 131.505 67.1542 148.144 71.4462C165.768 75.9875 182.258 93.7988 189.434 109.043C193.342 117.346 194.707 127.345 193.488 138.764C191.86 154.012 184.797 169.004 180.537 174.332C172.585 184.282 160.504 188.903 148.819 193.37C136.818 197.96 124.412 202.703 116.992 213.238C116.721 213.619 116.253 213.736 115.845 213.562Z" fill="black"/>
<path d="M104.39 205.749C104.338 205.727 104.285 205.701 104.235 205.665C103.737 205.346 103.545 204.656 103.81 204.126L103.906 203.93C109.626 192.358 115.996 180.508 122.847 168.713C125.859 163.527 128.711 158.856 132.45 155.05C129.477 152.021 127.458 147.884 126.718 144.027C126.583 143.327 126.478 142.619 126.404 141.902C125.505 142.551 124.584 143.177 123.645 143.77C118.619 146.965 114.447 147.668 110.914 145.912C109.74 145.331 108.712 144.494 107.798 143.541C107.117 147.549 106.166 151.4 105.176 155.012C101.367 168.907 96.1672 182.316 89.7168 194.87C89.4463 195.397 88.8219 195.558 88.3291 195.234C87.8334 194.908 87.6518 194.215 87.9222 193.688C94.3013 181.271 99.4459 168.008 103.211 154.262C104.312 150.242 105.364 145.923 106.032 141.437C105.641 140.912 105.272 140.383 104.919 139.868C101.417 134.754 97.3441 127.945 96.9112 120.627C96.7208 117.45 97.6526 115.116 99.4657 114.224C101.461 113.244 103.892 114.373 105.259 115.995C106.631 117.623 107.238 119.699 107.648 121.517C109.134 128.082 109.043 134.635 108.199 140.87C109.209 142.117 110.33 143.213 111.661 143.874C114.547 145.292 118.105 144.63 122.54 141.812C123.811 141.003 125.05 140.144 126.248 139.237C126.22 134.635 127.322 129.656 129.582 124.157C131.294 119.987 134.188 114.136 139.52 111.429C141.133 110.612 142.6 110.72 143.548 111.729C144.256 112.482 144.424 113.478 144.488 114.259C144.996 120.348 141.814 125.531 139.377 128.898C136.194 133.295 132.49 137.165 128.327 140.447C128.381 141.55 128.511 142.627 128.713 143.679C129.385 147.176 131.234 150.935 133.945 153.613C134.138 153.438 134.333 153.267 134.534 153.099C139.242 149.081 145.254 146.616 151.46 146.158C152.639 146.07 153.994 146.102 155.103 146.999C156.011 147.733 156.492 148.748 156.5 149.936C156.516 152.17 154.833 154.389 153.266 155.507C148.57 158.853 144.073 160.126 139.9 159.296C137.752 158.867 135.801 157.879 134.087 156.53C130.406 160.214 127.579 164.836 124.585 169.992C117.76 181.749 111.409 193.556 105.712 205.086L105.615 205.284C105.381 205.758 104.857 205.948 104.39 205.749ZM135.656 155.065C137.01 156.045 138.522 156.755 140.162 157.083C143.812 157.808 147.825 156.638 152.093 153.6C153.406 152.666 154.468 150.974 154.459 149.827C154.455 149.384 154.301 149.061 153.955 148.782C153.412 148.339 152.554 148.338 151.712 148.399C145.892 148.83 140.258 151.137 135.848 154.903C135.783 154.956 135.721 155.009 135.656 155.065ZM102.284 116.339C101.648 116.068 100.97 115.998 100.391 116.283C98.9097 117.01 98.8964 119.545 98.9589 120.6C99.3517 127.195 102.937 133.3 106.429 138.416C106.998 133.044 106.931 127.476 105.676 121.941C105.33 120.418 104.84 118.694 103.805 117.467C103.406 117.005 102.862 116.586 102.284 116.339ZM142.018 113.193C141.691 113.053 141.107 113.155 140.468 113.477C136.848 115.315 133.987 119.029 131.466 125.168C129.618 129.669 128.585 133.774 128.354 137.567C131.863 134.625 135.013 131.239 137.76 127.445C141.305 122.548 142.799 118.386 142.463 114.348C142.433 113.998 142.372 113.51 142.178 113.302C142.134 113.256 142.081 113.219 142.018 113.193Z" fill="black"/>
<path d="M211.457 156.472C210.959 156.259 210.665 155.668 210.788 155.106C210.917 154.525 211.448 154.185 211.991 154.34L228.388 159.036C229.974 159.49 230.272 160.482 230.31 161.033C230.338 161.462 230.189 161.85 229.897 162.094C229.162 162.715 229.066 162.796 211.516 156.49C211.493 156.483 211.474 156.479 211.457 156.472Z" fill="black"/>
<path d="M167.967 64.0954C167.941 64.0845 167.913 64.0723 167.888 64.0583C167.369 63.7852 167.128 63.1089 167.352 62.5545L174.475 44.7217C174.696 44.1661 175.291 43.9333 175.817 44.2132C176.336 44.4863 176.577 45.1626 176.353 45.717L169.23 63.5498C169.019 64.0747 168.465 64.3079 167.967 64.0954Z" fill="black"/>
<path d="M107.824 55.134C107.616 55.0453 107.428 54.8818 107.297 54.6592L98.6793 39.8598C98.4612 39.4819 97.7916 38.3348 98.3829 37.2942C98.6075 36.9035 98.9869 36.6899 99.405 36.7257C100.273 36.797 100.898 36.8442 109.047 53.6055C109.311 54.1487 109.151 54.7996 108.679 55.0816C108.41 55.2414 108.097 55.2506 107.824 55.134Z" fill="black"/>
<path d="M46.1741 86.9633C45.6413 86.7362 45.3522 86.0883 45.5276 85.5133C45.7012 84.9341 46.2773 84.648 46.8149 84.8702L63.8122 91.9452L63.8208 91.9489C64.3536 92.176 64.6427 92.8239 64.4672 93.3989C64.2937 93.9781 63.7147 94.263 63.1771 94.0408L46.1798 86.9658L46.1741 86.9633Z" fill="black"/>
<path d="M202.133 101.231C201.879 101.123 201.662 100.909 201.536 100.619C201.291 100.045 201.505 99.3894 202.014 99.1514L217.503 91.8929C218.013 91.6549 218.623 91.9253 218.867 92.4986C219.112 93.0719 218.898 93.728 218.389 93.966L202.9 101.224C202.651 101.341 202.378 101.336 202.133 101.231Z" fill="black"/>
<path d="M181.873 217.651C181.603 217.535 181.37 217.297 181.253 216.98L174.879 199.686C174.663 199.101 174.911 198.46 175.433 198.255C175.955 198.05 176.553 198.357 176.768 198.942L183.143 216.236C183.358 216.821 183.11 217.462 182.588 217.667C182.352 217.761 182.098 217.747 181.873 217.651Z" fill="black"/>
</svg>
