<svg width="35" height="35" viewBox="0 0 35 35" fill="none" xmlns="http://www.w3.org/2000/svg">
<g clip-path="url(#clip0_2360_3071)">
<path d="M30.1922 2.5H4.8077C3.5332 2.5 2.5 3.5332 2.5 4.8077V30.1922C2.5 31.4667 3.5332 32.5 4.8077 32.5H30.1922C31.4667 32.5 32.5 31.4667 32.5 30.1922V4.8077C32.5 3.5332 31.4667 2.5 30.1922 2.5Z" fill="#79EE8D"/>
<path fill-rule="evenodd" clip-rule="evenodd" d="M4.0625 8.79597V30.1922C4.0625 30.6037 4.39613 30.9375 4.8077 30.9375H30.1922C30.6037 30.9375 30.9375 30.6037 30.9375 30.1922V8.79597H4.0625ZM4.8077 0.9375C2.67025 0.9375 0.9375 2.67025 0.9375 4.8077V30.1922C0.9375 32.3298 2.67025 34.0625 4.8077 34.0625H30.1922C32.3298 34.0625 34.0625 32.3298 34.0625 30.1922V4.8077C34.0625 2.67025 32.3298 0.9375 30.1922 0.9375H4.8077ZM25.6098 13.5889C26.389 14.2708 26.468 15.4554 25.7862 16.2347L17.0361 26.2348C16.3903 26.9728 15.2847 27.0885 14.5001 26.5L9.50007 22.75C8.67165 22.1287 8.50375 20.9534 9.12507 20.125C9.7464 19.2966 10.9216 19.1287 11.7501 19.75L15.359 22.4567L22.964 13.7653C23.6459 12.986 24.8305 12.907 25.6098 13.5889Z" fill="#0C098C"/>
</g>
<defs>
<clipPath id="clip0_2360_3071">
<rect width="35" height="35" fill="white"/>
</clipPath>
</defs>
</svg>
