<svg width="35" height="35" viewBox="0 0 35 35" fill="none" xmlns="http://www.w3.org/2000/svg">
<g clip-path="url(#clip0_2360_3077)">
<path d="M32.5 13.75C32.5 12.3693 31.3807 11.25 30 11.25H13.75C12.3693 11.25 11.25 12.3693 11.25 13.75V30C11.25 31.3807 12.3693 32.5 13.75 32.5H30C31.3807 32.5 32.5 31.3807 32.5 30V13.75Z" fill="#79EE8D"/>
<path fill-rule="evenodd" clip-rule="evenodd" d="M0.9375 5C0.9375 2.7754 2.7754 0.9375 5 0.9375H21.25C23.4746 0.9375 25.3125 2.7754 25.3125 5V10.9375C25.3125 11.8005 24.6129 12.5 23.75 12.5H15C13.6193 12.5 12.5 13.6193 12.5 15V23.75C12.5 24.6129 11.8005 25.3125 10.9375 25.3125H5C2.7754 25.3125 0.9375 23.4746 0.9375 21.25V5ZM34.0625 30C34.0625 29.137 33.363 28.4375 32.5 28.4375C31.637 28.4375 30.9375 29.137 30.9375 30C30.9375 30.5177 30.5177 30.9375 30 30.9375C29.137 30.9375 28.4375 31.637 28.4375 32.5C28.4375 33.363 29.137 34.0625 30 34.0625C32.2437 34.0625 34.0625 32.2437 34.0625 30ZM28.4375 11.25C28.4375 10.387 29.137 9.6875 30 9.6875C32.2437 9.6875 34.0625 11.5063 34.0625 13.75C34.0625 14.613 33.363 15.3125 32.5 15.3125C31.637 15.3125 30.9375 14.613 30.9375 13.75C30.9375 13.2322 30.5177 12.8125 30 12.8125C29.137 12.8125 28.4375 12.113 28.4375 11.25ZM12.8125 30C12.8125 29.137 12.113 28.4375 11.25 28.4375C10.387 28.4375 9.6875 29.137 9.6875 30C9.6875 32.2437 11.5063 34.0625 13.75 34.0625C14.613 34.0625 15.3125 33.363 15.3125 32.5C15.3125 31.637 14.613 30.9375 13.75 30.9375C13.2322 30.9375 12.8125 30.5177 12.8125 30ZM32.5 18.75C33.1903 18.75 33.75 19.3097 33.75 20V23.75C33.75 24.4403 33.1903 25 32.5 25C31.8097 25 31.25 24.4403 31.25 23.75V20C31.25 19.3097 31.8097 18.75 32.5 18.75ZM20 30.9375C19.1371 30.9375 18.4375 31.637 18.4375 32.5C18.4375 33.363 19.1371 34.0625 20 34.0625H23.75C24.6129 34.0625 25.3125 33.363 25.3125 32.5C25.3125 31.637 24.6129 30.9375 23.75 30.9375H20Z" fill="#0C098C"/>
</g>
<defs>
<clipPath id="clip0_2360_3077">
<rect width="35" height="35" fill="white"/>
</clipPath>
</defs>
</svg>
