<svg width="745" height="745" viewBox="0 0 745 745" fill="none" xmlns="http://www.w3.org/2000/svg">
<path d="M556.769 504.529V499.538C556.769 473.835 589.31 472.718 589.31 454.421C589.31 446.479 582.843 441.294 573.218 441.294C562.684 441.294 556.024 447.03 556.024 455.166V457.207C556.024 459.233 554.921 460.187 552.88 460.187L533.107 459.442C531.26 459.442 529.963 458.518 529.963 457.237V455.195C529.963 432.845 547.709 417.483 573.784 417.483C599.293 417.483 615.743 431.907 615.743 453.527C615.743 484.221 582.65 484.414 582.65 501.207V504.529C582.7 504.954 582.653 505.385 582.513 505.789C582.373 506.194 582.143 506.561 581.84 506.864C581.538 507.166 581.17 507.396 580.766 507.536C580.362 507.677 579.931 507.723 579.506 507.673H559.912C559.487 507.723 559.057 507.677 558.652 507.536C558.248 507.396 557.881 507.166 557.578 506.864C557.275 506.561 557.045 506.194 556.905 505.789C556.765 505.385 556.718 504.954 556.769 504.529ZM555.1 534.329C555.1 526.194 562.311 519.533 570.998 519.533C579.327 519.533 586.717 526.194 586.717 534.329C586.717 542.465 579.267 549.125 570.819 549.125C562.371 549.125 555.1 542.435 555.1 534.299V534.329Z" fill="#419A5B" fill-opacity="0.6"/>
<path d="M166.09 292.8V288.464C166.09 266.114 194.4 265.175 194.4 249.277C194.4 242.363 188.783 237.878 180.439 237.878C171.276 237.878 165.539 242.855 165.539 249.918V251.691C165.539 253.449 164.585 254.254 162.812 254.254L145.633 253.613C144.023 253.613 142.906 252.808 142.906 251.691V249.918C142.906 230.548 158.313 217.138 180.961 217.138C203.117 217.138 217.421 229.669 217.421 248.428C217.421 275.084 188.664 275.248 188.664 289.865V292.755C188.707 293.124 188.666 293.497 188.544 293.847C188.422 294.198 188.223 294.516 187.96 294.778C187.698 295.041 187.38 295.24 187.029 295.362C186.679 295.484 186.306 295.525 185.937 295.482H168.817C168.453 295.524 168.084 295.483 167.737 295.364C167.39 295.245 167.075 295.049 166.813 294.792C166.552 294.535 166.351 294.223 166.226 293.878C166.101 293.533 166.055 293.165 166.09 292.8ZM164.6 318.651C164.6 311.589 170.858 305.808 178.398 305.808C185.624 305.808 192.061 311.589 192.061 318.651C192.061 325.714 185.624 331.495 178.249 331.495C174.745 331.584 171.349 330.283 168.8 327.877C166.252 325.471 164.758 322.154 164.645 318.651H164.6Z" fill="#419A5B" fill-opacity="0.5"/>
<path d="M525.717 121.823V119.632C525.717 108.353 539.991 107.861 539.991 99.8301C539.991 96.3435 537.145 94.0638 532.928 94.0638C528.309 94.0638 525.389 96.5819 525.389 100.158V101.052C525.389 101.946 524.897 102.348 524.003 102.348L515.331 102.02C514.512 102.02 513.946 101.618 513.946 101.052V100.158C513.946 90.3388 521.739 83.604 533.182 83.604C544.372 83.604 551.598 89.9365 551.598 99.4278C551.598 112.838 537.071 112.972 537.071 120.288V121.778C537.093 121.964 537.072 122.154 537.009 122.331C536.947 122.508 536.846 122.669 536.712 122.801C536.579 122.933 536.417 123.033 536.239 123.093C536.061 123.154 535.871 123.173 535.685 123.149H527.088C526.906 123.172 526.721 123.154 526.548 123.096C526.374 123.038 526.215 122.942 526.084 122.815C525.952 122.687 525.851 122.532 525.787 122.36C525.724 122.189 525.7 122.005 525.717 121.823ZM524.987 134.89C524.891 133.497 525.217 132.107 525.922 130.901C526.626 129.696 527.678 128.73 528.939 128.13C530.199 127.53 531.612 127.323 532.992 127.536C534.372 127.75 535.656 128.374 536.677 129.326C537.698 130.279 538.408 131.517 538.716 132.88C539.024 134.242 538.914 135.665 538.402 136.964C537.89 138.263 536.999 139.379 535.845 140.165C534.691 140.951 533.327 141.371 531.93 141.371C531.048 141.403 530.169 141.261 529.342 140.952C528.515 140.643 527.758 140.174 527.113 139.572C526.468 138.97 525.948 138.246 525.583 137.443C525.218 136.639 525.016 135.772 524.987 134.89Z" fill="#419A5B" fill-opacity="0.3"/>
<path d="M107.28 423.16V420.404C107.28 406.189 125.279 405.578 125.279 395.446C125.279 391.051 121.703 388.19 116.339 388.19C110.513 388.19 106.833 391.364 106.833 395.863V396.981C106.833 398.113 106.222 398.62 105.09 398.62L94.1532 398.218C93.1251 398.218 92.4099 397.696 92.4099 396.981V395.863C92.4099 383.496 102.229 375.003 116.652 375.003C130.763 375.003 139.852 382.975 139.852 394.94C139.852 411.911 121.554 412.015 121.554 421.328V423.16C121.583 423.396 121.558 423.635 121.481 423.86C121.403 424.085 121.276 424.289 121.108 424.457C120.94 424.625 120.736 424.753 120.511 424.83C120.286 424.907 120.047 424.932 119.811 424.904H108.994C108.76 424.928 108.524 424.899 108.303 424.819C108.082 424.74 107.882 424.611 107.718 424.444C107.553 424.276 107.428 424.074 107.353 423.852C107.277 423.63 107.252 423.393 107.28 423.16ZM106.356 439.625C106.24 437.869 106.654 436.119 107.546 434.603C108.438 433.086 109.765 431.873 111.356 431.122C112.947 430.371 114.727 430.115 116.465 430.39C118.202 430.664 119.817 431.455 121.099 432.66C122.381 433.865 123.27 435.428 123.651 437.146C124.032 438.863 123.888 440.656 123.236 442.29C122.584 443.924 121.455 445.324 119.997 446.308C118.538 447.291 116.817 447.813 115.058 447.805C112.816 447.877 110.636 447.056 108.999 445.522C107.362 443.988 106.4 441.867 106.327 439.625H106.356Z" stroke="#419A5B" stroke-miterlimit="10"/>
<path d="M244.36 165.956V164.064C244.36 154.289 256.742 153.857 256.742 146.899C256.742 143.919 254.283 141.908 250.618 141.908C246.61 141.908 244.077 144.083 244.077 147.182V147.957C244.077 148.732 243.66 149.074 242.885 149.074L235.435 148.791C234.735 148.791 234.243 148.449 234.243 147.957V147.182C234.243 138.674 240.993 132.833 250.901 132.833C260.81 132.833 266.71 138.317 266.71 146.541C266.71 158.223 254.12 158.298 254.12 164.69V165.956C254.139 166.117 254.121 166.281 254.068 166.434C254.015 166.587 253.928 166.727 253.813 166.841C253.698 166.956 253.559 167.043 253.405 167.097C253.252 167.15 253.089 167.167 252.928 167.148H245.478C245.322 167.156 245.167 167.129 245.023 167.071C244.879 167.013 244.75 166.924 244.643 166.81C244.537 166.697 244.457 166.562 244.408 166.414C244.359 166.267 244.343 166.111 244.36 165.956ZM243.734 177.28C243.669 176.09 243.962 174.907 244.575 173.885C245.189 172.862 246.095 172.048 247.177 171.546C248.259 171.044 249.466 170.878 250.643 171.07C251.82 171.261 252.912 171.802 253.779 172.621C254.645 173.44 255.246 174.5 255.504 175.664C255.762 176.828 255.665 178.043 255.225 179.151C254.785 180.259 254.023 181.21 253.037 181.881C252.051 182.551 250.887 182.911 249.694 182.912C248.155 182.965 246.659 182.404 245.533 181.354C244.407 180.303 243.744 178.849 243.69 177.31L243.734 177.28Z" fill="#419A5B" fill-opacity="0.7"/>
<path d="M464.88 574.44V572.547C464.88 562.773 477.262 562.356 477.262 555.382C477.262 552.402 474.803 550.391 471.138 550.391C467.13 550.391 464.597 552.566 464.597 555.666V556.44C464.597 557.215 464.18 557.573 463.405 557.573L455.955 557.29C455.255 557.29 454.763 556.932 454.763 556.44V555.666C454.763 547.158 461.513 541.317 471.421 541.317C481.33 541.317 487.394 546.8 487.394 555.04C487.394 566.707 474.803 566.781 474.803 573.173V574.44C474.822 574.601 474.804 574.765 474.751 574.919C474.698 575.073 474.611 575.213 474.497 575.329C474.382 575.445 474.243 575.533 474.09 575.588C473.937 575.643 473.773 575.663 473.611 575.647H466.161C465.993 575.678 465.819 575.67 465.654 575.622C465.489 575.574 465.338 575.487 465.213 575.37C465.088 575.252 464.993 575.106 464.935 574.945C464.877 574.783 464.858 574.61 464.88 574.44ZM464.254 585.764C464.189 584.573 464.482 583.39 465.095 582.368C465.709 581.346 466.616 580.531 467.697 580.029C468.779 579.527 469.986 579.362 471.163 579.553C472.34 579.745 473.432 580.285 474.299 581.104C475.165 581.923 475.766 582.983 476.024 584.147C476.282 585.311 476.185 586.526 475.745 587.634C475.305 588.743 474.543 589.693 473.557 590.364C472.571 591.035 471.407 591.394 470.214 591.396C468.68 591.432 467.195 590.86 466.081 589.805C464.967 588.75 464.316 587.297 464.269 585.764H464.254Z" stroke="#419A5B" stroke-miterlimit="10"/>
<path d="M406.547 608.352C406.442 608.039 406.338 607.726 406.219 607.413C406.1 607.1 406.01 606.772 405.891 606.46C405.772 606.147 405.682 605.834 405.563 605.521C405.444 605.208 405.355 604.88 405.235 604.567C405.116 604.254 405.027 603.941 404.908 603.629C404.788 603.316 404.699 602.988 404.58 602.675L404.252 601.736C404.148 601.408 404.029 601.096 403.924 600.783L403.596 599.844C403.492 599.516 403.373 599.203 403.269 598.89L402.941 597.952C402.837 597.624 402.717 597.311 402.613 596.998L402.3 596C402.196 595.672 402.077 595.359 401.972 595.046L401.63 594.107C401.525 593.78 401.421 593.467 401.302 593.154C401.183 592.841 401.093 592.528 400.974 592.215C400.855 591.902 400.765 591.574 400.646 591.262C400.527 590.949 400.438 590.636 400.318 590.323C395.461 575.542 380.442 564.695 363.918 564.695C347.9 564.695 333.969 574.022 328.158 587.164C328.009 587.462 327.875 587.775 327.741 588.073L327.338 588.997C327.189 589.295 327.055 589.593 326.921 589.906C326.787 590.219 326.638 590.517 326.504 590.815L326.102 591.723C325.953 592.036 325.818 592.334 325.684 592.647C325.55 592.96 325.401 593.243 325.267 593.556C325.133 593.869 324.984 594.152 324.85 594.465L324.448 595.374C324.299 595.672 324.165 595.985 324.03 596.283C323.896 596.581 323.747 596.894 323.613 597.192L323.211 598.116C323.062 598.414 322.928 598.712 322.794 599.024C322.66 599.337 322.511 599.635 322.377 599.933L321.974 600.842C321.825 601.155 321.691 601.453 321.557 601.766C321.423 602.079 321.274 602.362 321.14 602.675L320.738 603.584C320.589 603.882 320.454 604.195 320.32 604.493C320.186 604.791 320.037 605.104 319.903 605.417C317.347 610.861 316.034 616.805 316.059 622.82C316.059 646.809 336.77 666.417 362.383 666.417C387.445 666.417 409.244 646.809 409.244 622.82C409.239 618.246 408.437 613.708 406.874 609.41C406.77 608.978 406.666 608.665 406.547 608.352Z" fill="#419A5B" fill-opacity="0.37"/>
<path d="M371.099 278.333C294.26 278.333 241.946 323.554 241.946 389.501V395.461C241.96 396.446 242.228 397.411 242.724 398.262C243.22 399.113 243.927 399.821 244.777 400.319C245.099 400.628 245.448 400.907 245.82 401.153C246.143 401.467 246.498 401.747 246.878 401.988C247.201 402.302 247.556 402.581 247.936 402.822C248.256 403.139 248.611 403.419 248.994 403.656C249.312 403.97 249.661 404.25 250.037 404.491C250.36 404.809 250.714 405.094 251.095 405.34C251.422 405.65 251.776 405.929 252.153 406.175C252.476 406.487 252.831 406.767 253.211 407.009C253.529 407.322 253.879 407.601 254.254 407.843C254.604 408.181 254.988 408.48 255.401 408.737C255.705 409.014 256.028 409.268 256.369 409.497C256.696 409.807 257.05 410.086 257.427 410.332C257.749 410.641 258.098 410.92 258.47 411.166C258.797 411.476 259.151 411.755 259.528 412C259.852 412.313 260.206 412.593 260.586 412.835C260.905 413.148 261.254 413.427 261.629 413.669C261.953 413.982 262.307 414.262 262.687 414.504C263.006 414.816 263.355 415.096 263.73 415.338C264.057 415.648 264.411 415.927 264.788 416.172C265.106 416.485 265.456 416.765 265.831 417.007C267.553 418.522 269.799 419.303 272.089 419.182L320.007 420.97C324.939 420.97 327.621 418.735 327.621 413.803V408.886C327.621 389.174 343.743 375.302 369.341 375.302C392.63 375.302 408.305 387.833 408.305 407.098C408.305 409.294 408.096 411.484 407.679 413.639C383.63 445.168 321.035 459.07 321.035 520.264V534.985C321.035 540.945 324.299 544.238 330.303 544.238H387.996C393.956 544.238 397.264 540.975 397.264 534.985V525.166C397.264 475.579 494.814 475.027 494.814 384.57C494.814 320.827 446.3 278.333 371.099 278.333Z" fill="#419A5B" fill-opacity="0.37"/>
<path d="M320.961 535.014V520.293C320.961 444.541 416.872 441.323 416.872 387.325C416.872 363.888 397.8 348.585 369.46 348.585C338.394 348.585 318.8 365.482 318.8 389.456V395.416C318.8 401.376 315.522 404.147 309.533 404.147L251.214 401.957C245.776 401.957 241.961 399.23 241.961 395.416V389.456C241.961 323.509 294.275 278.287 371.114 278.287C446.315 278.287 494.784 320.782 494.784 384.554C494.784 475.012 397.234 475.563 397.234 525.15V534.969C397.234 540.929 393.956 544.222 387.966 544.222H330.229C324.224 544.267 320.961 541.004 320.961 535.014ZM316.059 622.82C316.059 598.846 337.306 579.222 362.919 579.222C387.445 579.222 409.243 598.846 409.243 622.82C409.243 646.794 387.4 666.343 362.383 666.343C336.74 666.343 316.059 646.734 316.059 622.82Z" fill="#419A5B" stroke="#FFDDBC" stroke-miterlimit="10"/>
<path d="M359.999 715.2C404.938 715.2 441.368 707.055 441.368 697.007C441.368 686.959 404.938 678.814 359.999 678.814C315.06 678.814 278.63 686.959 278.63 697.007C278.63 707.055 315.06 715.2 359.999 715.2Z" fill="#419A5B" fill-opacity="0.37"/>
<path d="M297.806 284.367L294.692 291.161C294.692 291.161 276.604 293.113 276.604 294.469C276.604 295.825 276.797 305.167 277.781 305.555C278.528 305.846 279.358 305.846 280.105 305.555L306.746 298.745L309.279 286.691L297.806 284.367Z" fill="white" stroke="#263238" stroke-linecap="round" stroke-linejoin="round"/>
<path d="M292.74 296.51C289.432 299.22 285.863 301.596 282.087 303.602C277.781 305.539 277.617 308.475 278.988 308.475C280.358 308.475 292.517 303.379 292.517 303.379C292.517 303.379 303.558 300.488 305.152 299.609C306.746 298.73 306.925 293.843 306.925 293.843" fill="white"/>
<path d="M292.74 296.51C289.432 299.22 285.863 301.596 282.087 303.602C277.781 305.539 277.617 308.475 278.988 308.475C280.358 308.475 292.517 303.379 292.517 303.379C292.517 303.379 303.558 300.488 305.152 299.609C306.746 298.73 306.925 293.843 306.925 293.843" stroke="#263238" stroke-linecap="round" stroke-linejoin="round"/>
<path d="M313.72 153.812L302.604 239.011L294.871 285.141L312.036 289.194L324.835 234.63L330.899 200.286L313.72 153.812Z" fill="#8DAFA8" stroke="#263238" stroke-linecap="round" stroke-linejoin="round"/>
<path d="M403.418 92.1269L396.638 91.0541L382.751 85.7944L382.245 102.289L403.775 104.27L403.418 92.1269Z" fill="white" stroke="#263238" stroke-linecap="round" stroke-linejoin="round"/>
<path d="M324.165 394.254C319.112 400.145 314.391 406.314 310.024 412.73C304.288 421.491 306.314 430.908 313.392 433.277C320.469 435.646 329.543 429.224 331.913 424.173C334.282 419.122 333.596 416.44 337.291 411.389C340.987 406.338 344.026 401.287 342.685 394.552C341.344 387.817 327.8 389.546 324.165 394.254Z" fill="#8DAFA8" stroke="#263238" stroke-linecap="round" stroke-linejoin="round"/>
<path d="M331.227 425.44C330.75 424.427 330.199 423.354 329.543 422.207C324.135 412.685 314.643 413.445 308.683 415.218C304.765 423.22 307 431.176 313.422 433.322C319.844 435.468 328.128 430.223 331.227 425.44Z" fill="white" stroke="#263238" stroke-linecap="round" stroke-linejoin="round"/>
<path d="M329.543 422.206C327.532 425.186 324.835 433.322 314.39 429.954C311.478 429.207 308.872 427.565 306.94 425.261C307.166 427.078 307.895 428.796 309.046 430.22C310.197 431.645 311.722 432.719 313.451 433.322C320.514 435.676 329.603 429.269 331.972 424.218C334.341 419.167 333.656 416.485 337.351 411.434C341.046 406.383 344.086 401.331 342.745 394.597C342.745 402.672 339.765 404.013 336.01 408.394C332.255 412.775 331.57 419.167 329.543 422.206Z" fill="white" stroke="#263238" stroke-linecap="round" stroke-linejoin="round"/>
<path d="M423.533 394.254C428.585 400.145 433.306 406.314 437.673 412.73C443.409 421.491 441.383 430.908 434.305 433.277C427.228 435.646 418.154 429.224 415.785 424.173C413.416 419.122 414.101 416.44 410.406 411.389C406.711 406.338 403.671 401.287 405.012 394.552C406.353 387.817 419.837 389.546 423.533 394.254Z" fill="#8DAFA8" stroke="#263238" stroke-linecap="round" stroke-linejoin="round"/>
<path d="M416.485 425.44C416.947 424.427 417.498 423.354 418.154 422.207C423.562 412.685 433.054 413.445 439.014 415.218C442.932 423.22 440.697 431.176 434.275 433.322C427.854 435.468 419.569 430.223 416.485 425.44Z" fill="white" stroke="#263238" stroke-linecap="round" stroke-linejoin="round"/>
<path d="M418.154 422.206C420.165 425.186 422.862 433.322 433.307 429.954C436.22 429.207 438.825 427.565 440.757 425.261C440.531 427.078 439.802 428.796 438.651 430.22C437.501 431.645 435.975 432.719 434.246 433.322C427.183 435.676 418.094 429.269 415.725 424.218C413.356 419.167 414.041 416.485 410.346 411.434C406.651 406.383 403.611 401.331 404.952 394.597C404.952 402.672 407.932 404.013 411.687 408.394C415.442 412.775 416.127 419.167 418.154 422.206Z" fill="white" stroke="#263238" stroke-linecap="round" stroke-linejoin="round"/>
<path d="M439.327 278.079C439.327 272.014 428.897 265.28 428.897 265.28C413.177 249.292 384.808 251.408 374.333 252.838C363.903 251.348 335.504 249.292 319.784 265.28C319.784 265.28 309.354 272.014 309.354 278.079C309.354 284.143 322.496 393.584 322.496 393.584C322.496 393.584 322.153 399.305 331.585 399.976C341.016 400.646 344.995 395.267 344.995 395.267L348.705 302.664C348.705 302.664 363.858 291.876 366.585 291.548C367.568 291.414 368.85 291.206 370.28 291.027V291.206C372.948 290.649 375.703 290.649 378.371 291.206V291.027C379.861 291.206 381.068 291.414 382.066 291.548C384.763 291.876 399.946 302.664 399.946 302.664L403.656 395.267C403.656 395.267 407.694 400.646 417.066 399.976C426.438 399.305 426.155 393.584 426.155 393.584C426.155 393.584 439.327 284.143 439.327 278.079Z" fill="#263238" stroke="#263238" stroke-linecap="round" stroke-linejoin="round"/>
<path d="M399.931 302.663C399.931 302.663 397.905 280.433 407.679 272.014" stroke="#707070" stroke-linecap="round" stroke-linejoin="round"/>
<path d="M348.75 302.664C348.75 302.664 349.763 284.143 347.736 277.408C345.71 270.673 342.343 267.977 342.343 267.977" stroke="#707070" stroke-linecap="round" stroke-linejoin="round"/>
<path d="M361.206 258.545C361.206 258.545 371.979 271.001 374.005 281.446" stroke="#707070" stroke-linecap="round" stroke-linejoin="round"/>
<path d="M384.778 259.26C384.778 259.26 378.713 265.995 378.043 271.046" stroke="#707070" stroke-linecap="round" stroke-linejoin="round"/>
<path d="M369.624 128.229C369.624 128.229 359.865 126.873 356.497 130.241C353.13 133.608 341.672 146.02 341.672 146.02L347.736 253.106C347.736 253.106 361.548 258.5 373.334 258.5C385.12 258.5 398.59 254.119 401.644 251.765C404.699 249.411 401.987 134.577 401.987 134.577C401.987 134.577 376.97 127.216 369.624 128.229Z" fill="#ACACAC" stroke="#263238" stroke-linecap="round" stroke-linejoin="round"/>
<path d="M387.475 130.584C392.601 129.805 397.772 129.353 402.956 129.228C409.69 129.228 416.366 129.571 416.366 129.571L433.203 113.404L399.32 105.656L402.017 90.175C402.017 90.175 426.93 88.4913 439.386 90.8455C451.843 93.1997 471.377 99.264 472.39 99.264C473.403 99.264 474.744 102.974 473.731 105.656C472.717 108.338 441.04 143.383 431.579 152.472C425.389 158.537 419.544 164.945 414.071 171.663L409.75 246.759C409.75 246.759 420.865 252.823 422.892 254.835C424.918 256.846 427.272 264.937 427.272 264.937C427.272 264.937 406.725 256.519 401.332 255.848C395.938 255.178 392.585 254.835 391.572 252.868C390.559 250.901 382.14 160.935 382.14 160.935L382.483 132.312C382.483 132.312 382.423 130.584 387.475 130.584Z" fill="#8DAFA8" stroke="#263238" stroke-linecap="round" stroke-linejoin="round"/>
<path d="M407.679 176.714L389.486 179.068L391.17 185.803L400.274 188.157L409.02 184.119L407.679 176.714Z" stroke="#263238" stroke-linecap="round" stroke-linejoin="round"/>
<path d="M418.109 136.305L414.071 171.663L424.516 141.699" stroke="#263238" stroke-linecap="round" stroke-linejoin="round"/>
<path d="M433.262 113.404C433.262 113.404 441.681 115.088 454.48 110.037" stroke="#263238" stroke-linecap="round" stroke-linejoin="round"/>
<path d="M442.023 115.758C447.554 115.912 453.085 115.462 458.518 114.417" stroke="#263238" stroke-linecap="round" stroke-linejoin="round"/>
<path d="M358.181 127.887L359.865 152.472C361.4 154.49 363.387 156.121 365.667 157.231C367.947 158.341 370.456 158.9 372.992 158.864C381.41 158.536 382.423 152.472 382.423 152.472V132.267L358.181 127.887Z" fill="white" stroke="#263238" stroke-linecap="round" stroke-linejoin="round"/>
<path d="M382.751 140.686L382.081 160.92L389.158 149.805C389.158 149.805 396.906 159.564 398.918 159.236C400.929 158.908 397.577 154.856 396.906 151.16C396.236 147.465 390.499 134.309 389.829 130.613C389.158 126.918 382.751 126.233 382.379 127.916C382.192 129.371 382.192 130.843 382.379 132.297L382.751 140.686Z" fill="#8DAFA8" stroke="#263238" stroke-linecap="round" stroke-linejoin="round"/>
<path d="M359.522 158.864C359.522 158.864 360.863 253.151 357.496 254.224C354.128 255.296 340.659 255.579 332.166 259.617C323.673 263.655 319.709 265.339 319.709 265.339C319.709 265.339 323.747 255.579 328.471 251.199C331.61 248.377 335.119 245.996 338.901 244.121L330.154 199.004C330.154 199.004 313.988 156.226 313.645 153.872C313.302 151.518 344.294 134.01 350.687 130.971C357.079 127.931 358.777 130.643 358.777 130.643L359.522 158.864Z" fill="#8DAFA8" stroke="#263238" stroke-linecap="round" stroke-linejoin="round"/>
<path d="M351.104 126.203C351.104 126.203 343.028 151.801 342.342 155.169C341.657 158.536 342.342 158.536 344.712 156.167C347.081 153.798 353.13 148.091 353.13 148.091L359.522 158.864L359.179 139.002V127.544C359.179 127.544 358.852 122.836 351.104 126.203Z" fill="#8DAFA8" stroke="#263238" stroke-linecap="round" stroke-linejoin="round"/>
<path d="M335.28 181.438H355.142L354.814 189.513L346.053 192.538L334.937 189.513L335.28 181.438Z" stroke="#263238" stroke-linecap="round" stroke-linejoin="round"/>
<path d="M389.829 92.8718C389.829 92.8718 394.537 113.404 395.55 116.712C396.564 120.02 390.172 133.221 388.1 136.246C387.312 137.557 386.228 138.667 384.934 139.484C383.641 140.302 382.174 140.805 380.65 140.954C378.296 140.954 365.497 136.588 362.458 134.562C359.418 132.536 356.408 130.181 356.408 130.181C354.976 130.834 353.384 131.055 351.828 130.817C350.271 130.579 348.818 129.892 347.647 128.84C343.609 125.13 338.215 120.75 339.556 117.725C340.21 116.241 341.303 114.993 342.689 114.151C344.075 113.309 345.686 112.913 347.304 113.017C351.014 113.017 349.673 112.674 349.673 112.674C349.673 112.674 342.939 102.914 342.939 95.1663C342.939 87.4183 357.406 81.7563 365.825 81.7563C371.646 81.9989 377.364 83.3703 382.662 85.7943L389.829 92.8718Z" fill="white" stroke="#263238" stroke-linecap="round" stroke-linejoin="round"/>
<path d="M378.043 100.605L384.107 112.063L378.043 116.101L375.346 112.734" stroke="#263238" stroke-linecap="round" stroke-linejoin="round"/>
<path d="M389.158 111.05C389.158 111.05 389.486 113.747 385.448 118.127" stroke="#263238" stroke-linecap="round" stroke-linejoin="round"/>
<path d="M371.651 104.822C371.651 106.401 370.965 107.683 370.161 107.683C369.356 107.683 368.671 106.401 368.671 104.822C368.671 103.242 369.356 101.961 370.161 101.961C370.965 101.961 371.651 103.242 371.651 104.822Z" fill="#263238"/>
<path d="M382.245 102.289C383.084 102.289 383.764 101.008 383.764 99.4277C383.764 97.8477 383.084 96.5669 382.245 96.5669C381.405 96.5669 380.725 97.8477 380.725 99.4277C380.725 101.008 381.405 102.289 382.245 102.289Z" fill="#263238"/>
<path d="M353.458 75.3493C353.458 75.3493 332.27 83.0973 331.57 92.8717C330.87 102.646 350.433 116.101 351.446 117.785C352.46 119.468 355.484 115.758 355.484 115.758C354.811 114.853 354.341 113.814 354.107 112.71C353.873 111.607 353.88 110.466 354.128 109.366C355.142 105.999 359.522 101.916 359.522 100.277C359.522 98.638 354.471 101.618 354.471 96.5669C354.471 91.5158 366.928 88.4911 374.333 88.8189C381.738 89.1467 388.145 101.618 393.539 95.5537C398.933 89.4894 391.17 87.8206 391.17 87.8206C391.17 87.8206 401.6 86.4647 401.6 81.0858C401.6 75.7069 396.206 71.9819 393.852 71.9819C391.498 71.9819 385.106 76.0347 385.106 71.6541C385.106 67.2735 391.498 65.2471 385.433 58.2441C379.369 51.2411 371.636 58.2441 371.636 60.941C371.636 63.6379 369.61 68.6741 368.269 68.6741C366.928 68.6741 362.875 62.6247 358.166 65.9921C356.751 67.1177 355.596 68.5375 354.783 70.1531C353.971 71.7687 353.518 73.5417 353.458 75.3493Z" fill="#263238" stroke="#263238" stroke-linecap="round" stroke-linejoin="round"/>
<path d="M362.219 101.29L372.992 97.2373" stroke="#263238" stroke-linecap="round" stroke-linejoin="round"/>
<path d="M374.676 92.5289C374.469 91.4718 374.638 90.376 375.153 89.4297" stroke="#263238" stroke-linecap="round" stroke-linejoin="round"/>
<path d="M375.152 89.3999C375.912 87.9099 377.626 85.9878 381.41 84.4233" stroke="white" stroke-linecap="round" stroke-linejoin="round"/>
</svg>
